<svg xmlns="http://www.w3.org/2000/svg" xmlns:xlink="http://www.w3.org/1999/xlink" xmlns:lucid="lucid" width="3763" height="2101"><g transform="translate(941.9999999999999 640)" lucid:page-tab-id="0_0"><path d="M-1000-1000h4000v2500h-4000z" fill="#fff"/><path d="M817.4 640.95h1982.16v430H817.4z" fill="#fff" fill-opacity="0"/><path d="M847.12 640.95h19.83m19.82 0h19.82m19.8 0h19.83m19.82 0h19.83m19.82 0h19.82m19.82 0h19.82m19.82 0h19.83m19.83 0h19.82m19.82 0h19.82m19.82 0h19.82m19.82 0h19.82m19.82 0h19.82m19.83 0h19.82m19.82 0h19.8m19.83 0h19.82m19.83 0h19.82m19.82 0h19.82m19.82 0h19.83m19.8 0h19.83m19.82 0h19.82m19.82 0h19.82m19.82 0h19.82m19.82 0h19.82m19.82 0h19.83m19.82 0h19.82m19.8 0h19.83m19.82 0h19.83m19.82 0h19.82m19.82 0h19.82m19.83 0h19.8m19.83 0h19.82m19.82 0h19.82m19.82 0h19.82m19.82 0h19.82m19.82 0h19.82m19.83 0h19.82m19.82 0h19.8m19.83 0h19.82m19.83 0h19.82m19.82 0h19.82m19.82 0h19.82m19.83 0h19.83m19.82 0h19.82m19.82 0h19.8m19.84 0h19.82m19.82 0h19.82m19.82 0h19.83m19.82 0h19.82m19.8 0h19.83m19.82 0h9.9v9.77m0 19.55v19.55m0 19.54v19.55m0 19.55V768m0 19.54v19.55m0 19.53v19.55m0 19.55v19.54m0 19.55v19.54m0 19.55v19.55m0 19.55v19.54m0 19.55v19.53m0 19.55v9.77h-9.9m-19.82 0H2750m-19.8 0h-19.83m-19.82 0h-19.83m-19.82 0h-19.82m-19.82 0h-19.82m-19.83 0h-19.8m-19.83 0h-19.82m-19.82 0h-19.82m-19.82 0h-19.82m-19.82 0h-19.82m-19.82 0h-19.82m-19.83 0h-19.82m-19.82 0h-19.8m-19.83 0h-19.82m-19.83 0H2195m-19.82 0h-19.82m-19.82 0h-19.82m-19.83 0h-19.83m-19.82 0h-19.82m-19.82 0h-19.8m-19.84 0h-19.82m-19.82 0h-19.82m-19.82 0h-19.83m-19.82 0h-19.82m-19.8 0h-19.83m-19.82 0h-19.83m-19.82 0h-19.82m-19.82 0h-19.82m-19.83 0h-19.8m-19.83 0h-19.82m-19.82 0h-19.82m-19.82 0h-19.82m-19.82 0h-19.82m-19.82 0h-19.82m-19.83 0h-19.82m-19.82 0h-19.8m-19.83 0h-19.82m-19.83 0h-19.82m-19.82 0h-19.82m-19.82 0h-19.83m-19.8 0h-19.83m-19.82 0h-19.82m-19.82 0H1085m-19.82 0h-19.82m-19.82 0h-19.82m-19.82 0h-19.83m-19.82 0H926.4m-19.8 0h-19.83m-19.82 0h-19.83m-19.82 0h-9.9v-9.77m0-19.55v-19.54m0-19.56V983m0-19.55V943.9m0-19.54v-19.54m0-19.55v-19.54m0-19.55v-19.55m0-19.54v-19.56m0-19.54v-19.55m0-19.54v-19.54m0-19.54v-19.55m0-19.54v-9.78h9.9" stroke="#008a0e" stroke-width="5" fill="none"/><use xlink:href="#a" transform="matrix(1,0,0,1,817.391304347826,660.952380952381) translate(863.90234375 25.833333333333336)"/><path d="M286.1 163.86H1655.2v368.57H286.1z" fill="#fff" fill-opacity="0"/><path d="M309.97 163.86h15.92m15.9 0h15.93m15.92 0h15.92m15.92 0h15.9m15.93 0h15.92m15.92 0h15.92m15.9 0h15.93m15.92 0h15.92m15.92 0h15.9m15.93 0h15.92m15.92 0h15.92m15.9 0h15.93m15.92 0h15.92m15.92 0h15.9m15.93 0h15.92m15.92 0h15.92m15.9 0h15.93m15.92 0h15.92m15.92 0H899m15.93 0h15.92m15.92 0h15.92m15.9 0h15.93m15.92 0h15.92m15.92 0h15.9m15.93 0h15.92m15.92 0h15.92m15.9 0h15.93m15.92 0h15.92m15.92 0h15.9m15.93 0h15.92m15.92 0h15.92m15.92 0h15.9m15.93 0h15.93m15.9 0h15.93m15.94 0h15.92m15.92 0h15.92m15.92 0h15.92m15.92 0h15.92m15.92 0h15.92m15.92 0h15.92m15.92 0h15.92m15.92 0h15.92m15.92 0h7.96v7.68m0 15.35v15.35m0 15.36v15.36m0 15.36v15.36m0 15.36v15.35m0 15.35v15.36m0 15.36v15.36m0 15.36v15.36m0 15.35v15.35m0 15.36v15.36m0 15.36v15.36m0 15.36v15.35m0 15.35v7.68h-7.96m-15.92 0h-15.92m-15.92 0h-15.92m-15.92 0h-15.92m-15.92 0h-15.92m-15.92 0h-15.92m-15.92 0h-15.92m-15.92 0h-15.92m-15.92 0h-15.92m-15.92 0h-15.92m-15.92 0h-15.92m-15.92 0H1297m-15.92 0h-15.93m-15.92 0h-15.92m-15.92 0h-15.9m-15.93 0h-15.92m-15.92 0h-15.92m-15.9 0h-15.93m-15.92 0h-15.92m-15.92 0h-15.9m-15.93 0h-15.92m-15.92 0H978.6m-15.9 0h-15.93m-15.92 0h-15.92m-15.92 0h-15.9m-15.93 0h-15.92m-15.92 0H819.4m-15.9 0h-15.93m-15.92 0h-15.92m-15.92 0h-15.9m-15.93 0h-15.92m-15.92 0H660.2m-15.9 0h-15.93m-15.92 0h-15.92m-15.92 0h-15.9m-15.93 0h-15.92m-15.92 0H501m-15.9 0h-15.93m-15.92 0h-15.92m-15.92 0h-15.9m-15.93 0h-15.92m-15.92 0H341.8m-15.9 0h-15.93m-15.92 0h-7.96v-7.68m0-15.36v-15.36m0-15.36v-15.36m0-15.36V432.6m0-15.35V401.9m0-15.36v-15.36m0-15.36v-15.36m0-15.35v-15.35m0-15.36v-15.36m0-15.36v-15.36m0-15.36V217.6m0-15.35V186.9m0-15.36v-7.68h7.95" stroke="#00c2a8" stroke-width="4" fill="none"/><use xlink:href="#b" transform="matrix(1,0,0,1,286.0869565217391,183.85714285714295) translate(656.9075520833334 25.833333333333336)"/><path d="M-940-260H633.48v368.57H-940z" fill="#fff" fill-opacity="0"/><path d="M-915.92-260h16.06m16.06 0h16.05m16.06 0h16.06m16.06 0h16.06m16.05 0h16.06m16.04 0h16.06m16.05 0h16.06m16.07 0h16.05m16.06 0h16.05m16.06 0h16.05m16.05 0h16.06m16.05 0h16.07m16.05 0h16.06m16.06 0h16.05m16.05 0h16.06m16.06 0h16.06m16.05 0h16.06m16.05 0h16.06m16.06 0h16.05m16.06 0h16.06m16.06 0h16.06m16.05 0h16.06m16.04 0h16.06m16.06 0h16.05m16.07 0h16.05m16.06 0h16.06m16.05 0h16.05m16.05 0h16.06m16.05 0H-.72m16.06 0h16.05m16.06 0H63.5m16.05 0H95.6m16.06 0h16.06m16.05 0h16.06m16.05 0h16.06m16.06 0h16.05m16.06 0h16.07m16.05 0h16.06m16.05 0h16.06m16.04 0h16.06m16.06 0h16.05m16.07 0h16.05m16.06 0h16.06m16.05 0h16.05m16.05 0h16.06m16.06 0h16.05m16.06 0h16.05m16.06 0h16.05m16.05 0h8.03v7.68m0 15.36v15.35m0 15.35v15.36m0 15.36v15.36m0 15.36v15.36m0 15.35v15.35m0 15.36v15.36m0 15.36v15.36m0 15.36V-6.6m0 15.35V24.1m0 15.36v15.36m0 15.36v15.36m0 15.35v7.67h-8.03m-16.06 0h-16.06m-16.06 0h-16.05m-16.06 0h-16.05m-16.06 0H497m-16.05 0H464.9m-16.06 0h-16.06m-16.06 0h-16.05m-16.06 0h-16.04m-16.06 0h-16.06m-16.05 0h-16.07m-16.05 0h-16.06m-16.06 0h-16.05m-16.05 0H208m-16.06 0h-16.06m-16.05 0h-16.06m-16.05 0h-16.06m-16.05 0H79.56m-16.06 0H47.43m-16.06 0H15.33m-16.06 0H-16.8m-16.04 0H-48.9m-16.05 0H-81m-16.06 0h-16.06m-16.06 0h-16.05m-16.06 0h-16.04m-16.06 0h-16.06m-16.05 0h-16.07m-16.05 0h-16.06m-16.06 0h-16.05m-16.05 0h-16.05m-16.06 0h-16.06m-16.05 0h-16.06m-16.05 0h-16.06m-16.06 0h-16.05m-16.06 0h-16.06m-16.06 0h-16.06m-16.05 0h-16.06m-16.04 0h-16.06m-16.05 0h-16.06m-16.07 0h-16.05m-16.06 0h-16.05m-16.06 0h-16.04m-16.06 0h-16.06m-16.05 0h-16.07m-16.05 0h-16.06m-16.06 0h-16.05m-16.05 0h-16.05m-16.06 0h-16.06m-16.05 0H-940v-7.68m0-15.36V70.18m0-15.36V39.46m0-15.35V8.76m0-15.36v-15.36m0-15.36v-15.36m0-15.36V-83.4m0-15.35v-15.36m0-15.36v-15.36m0-15.36v-15.36m0-15.35v-15.35m0-15.36v-15.36m0-15.36V-260h8.03" stroke="#00c2a8" stroke-width="4" fill="none"/><use xlink:href="#c" transform="matrix(1,0,0,1,-939.9999999999999,-239.99999999999994) translate(681.0939670138889 23.680555555555557)"/><use xlink:href="#d" transform="matrix(1,0,0,1,-939.9999999999999,-239.99999999999994) translate(837.5598958333334 23.680555555555557)"/><path d="M940-260h1348.7v368.57H940z" fill="#fff" fill-opacity="0"/><path d="M964.08-260h16.06m16.06 0h16.05m16.06 0h16.06m16.06 0h16.05m16.06 0h16.06m16.04 0h16.06m16.06 0h16.05m16.07 0h16.05m16.06 0h16.05m16.06 0h16.05m16.05 0h16.06m16.05 0h16.07m16.06 0h16.05m16.06 0h16.05m16.05 0h16.05m16.06 0h16.06m16.05 0h16.06m16.05 0h16.06m16.06 0h16.05m16.06 0h16.06m16.06 0h16.06m16.05 0h16.06m16.04 0h16.06m16.06 0h16.05m16.07 0h16.05m16.06 0h16.05m16.06 0h16.05m16.05 0h16.06m16.05 0h16.07m16.06 0h16.05m16.06 0h16.05m16.05 0h16.06m16.06 0h16.06m16.05 0h16.06m16.06 0h16.04m16.06 0h16.05m16.06 0h16.07m16.05 0h16.06m16.05 0h16.06m16.04 0h16.06m16.06 0h16.05m16.07 0h8.03v7.68m0 15.36v15.35m0 15.35v15.36m0 15.36v15.36m0 15.36v15.36m0 15.35v15.35m0 15.36v15.36m0 15.36v15.36m0 15.36V-6.6m0 15.35V24.1m0 15.36v15.36m0 15.36v15.36m0 15.35v7.67h-8.03m-16.06 0h-16.04m-16.06 0h-16.06m-16.05 0h-16.07m-16.05 0h-16.06m-16.05 0h-16.06m-16.05 0H2088m-16.06 0h-16.05m-16.07 0h-16.06m-16.05 0h-16.06m-16.05 0h-16.05m-16.06 0h-16.06m-16.06 0h-16.05m-16.06 0h-16.06m-16.04 0h-16.06m-16.05 0H1799m-16.07 0h-16.05m-16.06 0h-16.05m-16.06 0h-16.05m-16.05 0h-16.06m-16.05 0h-16.07m-16.05 0h-16.06m-16.06 0h-16.05m-16.05 0h-16.05m-16.06 0h-16.06m-16.05 0h-16.06m-16.05 0h-16.06m-16.06 0h-16.05m-16.06 0h-16.06m-16.06 0h-16.06m-16.05 0h-16.06m-16.04 0h-16.06m-16.05 0h-16.06m-16.07 0h-16.05m-16.06 0h-16.05m-16.06 0h-16.04m-16.06 0h-16.06m-16.05 0h-16.07m-16.06 0h-16.05m-16.06 0h-16.05m-16.05 0H996.2m-16.06 0h-16.06m-16.05 0H940v-7.68m0-15.36V70.18m0-15.36V39.46m0-15.35V8.76m0-15.36v-15.36m0-15.36v-15.36m0-15.36V-83.4m0-15.35v-15.36m0-15.36v-15.36m0-15.36v-15.36m0-15.35v-15.35m0-15.36v-15.36m0-15.36V-260h8.03" stroke="#00c2a8" stroke-width="4" fill="none"/><use xlink:href="#e" transform="matrix(1,0,0,1,939.9999999999999,-240) translate(645.8997395833334 25.833333333333336)"/><path d="M878.7 749.33a6 6 0 0 1 6-6h294.52a6 6 0 0 1 6 6v213.24a6 6 0 0 1-6 6H884.7a6 6 0 0 1-6-6z" stroke="#000" stroke-width="2" fill="#fff"/><use xlink:href="#f" transform="matrix(1,0,0,1,890.6956521739133,755.3333333333334) translate(52.93120659722223 109.11371527777777)"/><use xlink:href="#g" transform="matrix(1,0,0,1,890.6956521739133,755.3333333333334) translate(146.69205729166669 109.11371527777777)"/><path d="M1186.72 855.95h62.85" stroke="#3a414a" fill="none"/><path d="M1186.73 856.43h-.5v-.95h.5z" stroke="#3a414a" stroke-width=".05" fill="#3a414a"/><path d="M1264.34 855.95l-14.27 4.64v-9.28z" stroke="#3a414a" fill="#3a414a"/><path d="M1266.96 749.33a6 6 0 0 1 6-6h294.52a6 6 0 0 1 6 6v213.24a6 6 0 0 1-6 6h-294.52a6 6 0 0 1-6-6z" stroke="#000" stroke-width="2" fill="#fff"/><use xlink:href="#h" transform="matrix(1,0,0,1,1278.95652173913,755.3333333333334) translate(43.887152777777786 109.11371527777777)"/><use xlink:href="#i" transform="matrix(1,0,0,1,1278.95652173913,755.3333333333334) translate(144.85286458333331 109.11371527777777)"/><use xlink:href="#j" transform="matrix(1,0,0,1,1278.95652173913,755.3333333333334) translate(177.66536458333331 109.11371527777777)"/><path d="M1574.98 855.95h62.85" stroke="#3a414a" fill="none"/><path d="M1575 856.43h-.52v-.95h.5z" stroke="#3a414a" stroke-width=".05" fill="#3a414a"/><path d="M1652.6 855.95l-14.27 4.64v-9.28z" stroke="#3a414a" fill="#3a414a"/><path d="M1655.22 749.33a6 6 0 0 1 6-6h294.52a6 6 0 0 1 6 6v213.24a6 6 0 0 1-6 6h-294.52a6 6 0 0 1-6-6z" stroke="#000" stroke-width="2" fill="#fff"/><use xlink:href="#k" transform="matrix(1,0,0,1,1667.2173913043475,755.3333333333334) translate(19.934244791666657 92.93793402777777)"/><use xlink:href="#i" transform="matrix(1,0,0,1,1667.2173913043475,755.3333333333334) translate(75.71766493055554 92.93793402777777)"/><use xlink:href="#l" transform="matrix(1,0,0,1,1667.2173913043475,755.3333333333334) translate(108.53016493055554 92.93793402777777)"/><use xlink:href="#m" transform="matrix(1,0,0,1,1667.2173913043475,755.3333333333334) translate(84.517578125 125.20355902777777)"/><path d="M1963.24 855.95h62.85" stroke="#3a414a" fill="none"/><path d="M1963.25 856.43h-.5v-.95h.5z" stroke="#3a414a" stroke-width=".05" fill="#3a414a"/><path d="M2040.86 855.95l-14.27 4.64v-9.28z" stroke="#3a414a" fill="#3a414a"/><path d="M2043.48 749.33a6 6 0 0 1 6-6H2344a6 6 0 0 1 6 6v213.24a6 6 0 0 1-6 6h-294.52a6 6 0 0 1-6-6z" stroke="#000" stroke-width="2" fill="#fff"/><use xlink:href="#n" transform="matrix(1,0,0,1,2055.478260869565,755.3333333333334) translate(57.89539930555557 109.11371527777777)"/><use xlink:href="#o" transform="matrix(1,0,0,1,2055.478260869565,755.3333333333334) translate(126.75390625000001 109.11371527777777)"/><use xlink:href="#p" transform="matrix(1,0,0,1,2055.478260869565,755.3333333333334) translate(178.27300347222223 109.11371527777777)"/><path d="M2351.5 855.95h62.86" stroke="#3a414a" fill="none"/><path d="M2351.5 856.43h-.5v-.95h.5z" stroke="#3a414a" stroke-width=".05" fill="#3a414a"/><path d="M2429.12 855.95l-14.26 4.64v-9.28z" stroke="#3a414a" fill="#3a414a"/><path d="M2431.74 749.33a6 6 0 0 1 6-6h294.52a6 6 0 0 1 6 6v213.24a6 6 0 0 1-6 6h-294.52a6 6 0 0 1-6-6z" stroke="#000" stroke-width="2" fill="#fff"/><use xlink:href="#q" transform="matrix(1,0,0,1,2443.7391304347825,755.3333333333334) translate(3.473741319444457 92.93793402777777)"/><use xlink:href="#r" transform="matrix(1,0,0,1,2443.7391304347825,755.3333333333334) translate(91.353515625 92.93793402777777)"/><use xlink:href="#s" transform="matrix(1,0,0,1,2443.7391304347825,755.3333333333334) translate(110.08181423611111 92.93793402777777)"/><use xlink:href="#t" transform="matrix(1,0,0,1,2443.7391304347825,755.3333333333334) translate(253.44118923611111 92.93793402777777)"/><use xlink:href="#u" transform="matrix(1,0,0,1,2443.7391304347825,755.3333333333334) translate(105.10134548611111 125.20355902777777)"/><path d="M1031.96 985.96v247.3" stroke="#3a414a" fill="none"/><path d="M1031.96 971.2l4.63 14.25h-9.28z" stroke="#3a414a" fill="#3a414a"/><path d="M1032.43 1233.76h-.95v-.5h.95z" stroke="#3a414a" stroke-width=".05" fill="#3a414a"/><path d="M878.7 1240.76a6 6 0 0 1 6-6h294.52a6 6 0 0 1 6 6V1454a6 6 0 0 1-6 6H884.7a6 6 0 0 1-6-6z" stroke="#000" stroke-width="2" fill="#fff"/><use xlink:href="#v" transform="matrix(1,0,0,1,890.6956521739133,1246.7619047619046) translate(35.396484375 109.11371527777777)"/><use xlink:href="#w" transform="matrix(1,0,0,1,890.6956521739133,1246.7619047619046) translate(146.93077256944446 109.11371527777777)"/><path d="M1420.22 727.84V472.5" stroke="#3a414a" fill="none"/><path d="M1420.22 741.33l-7.5-13h15z" stroke="#3a414a" fill="#3a414a"/><path d="M1420.7 472.5h-.96v-.5h.95z" stroke="#3a414a" stroke-width=".05" fill="#3a414a"/><path d="M1266.96 251.76a6 6 0 0 1 6-6h294.52a6 6 0 0 1 6 6V465a6 6 0 0 1-6 6h-294.52a6 6 0 0 1-6-6z" stroke="#e81313" stroke-width="2" fill="#fff"/><use xlink:href="#x" transform="matrix(1,0,0,1,1278.95652173913,257.7619047619048) translate(46.97417534722223 109.11371527777777)"/><use xlink:href="#y" transform="matrix(1,0,0,1,1278.95652173913,257.7619047619048) translate(157.52105034722223 109.11371527777777)"/><use xlink:href="#z" transform="matrix(1,0,0,1,1278.95652173913,257.7619047619048) translate(190.70247395833331 109.11371527777777)"/><path d="M352.5 286.57a6 6 0 0 1 6-6h212.78a6 6 0 0 1 6 6v151.8a6 6 0 0 1-6 6H358.5a6 6 0 0 1-6-6z" stroke="#000" stroke-width="2" fill="#fff"/><use xlink:href="#h" transform="matrix(1,0,0,1,357.49999999999966,285.57142857142856) translate(9.887152777777786 84.99262152777777)"/><use xlink:href="#i" transform="matrix(1,0,0,1,357.49999999999966,285.57142857142856) translate(110.85286458333333 84.99262152777777)"/><use xlink:href="#j" transform="matrix(1,0,0,1,357.49999999999966,285.57142857142856) translate(143.66536458333331 84.99262152777777)"/><path d="M578.78 362.48h62.86" stroke="#3a414a" fill="none"/><path d="M578.8 362.95h-.52V362h.5z" stroke="#3a414a" stroke-width=".05" fill="#3a414a"/><path d="M656.4 362.48l-14.26 4.63v-9.26z" stroke="#3a414a" fill="#3a414a"/><path d="M659.02 286.57a6 6 0 0 1 6-6H877.8a6 6 0 0 1 6 6v151.8a6 6 0 0 1-6 6H665.02a6 6 0 0 1-6-6z" stroke="#000" stroke-width="2" fill="#fff"/><use xlink:href="#A" transform="matrix(1,0,0,1,664.0217391304344,285.57142857142856) translate(8.590494791666671 69.05121527777777)"/><use xlink:href="#B" transform="matrix(1,0,0,1,664.0217391304344,285.57142857142856) translate(122.60959201388889 69.05121527777777)"/><use xlink:href="#C" transform="matrix(1,0,0,1,664.0217391304344,285.57142857142856) translate(179.84700520833331 69.05121527777777)"/><use xlink:href="#D" transform="matrix(1,0,0,1,664.0217391304344,285.57142857142856) translate(26.407335069444457 101.31684027777777)"/><use xlink:href="#E" transform="matrix(1,0,0,1,664.0217391304344,285.57142857142856) translate(97.40342881944446 101.31684027777777)"/><path d="M885.3 362.48h62.86" stroke="#3a414a" fill="none"/><path d="M885.32 362.95h-.52V362h.52z" stroke="#3a414a" stroke-width=".05" fill="#3a414a"/><path d="M962.92 362.48l-14.26 4.63v-9.26z" stroke="#3a414a" fill="#3a414a"/><path d="M965.54 286.57a6 6 0 0 1 6-6h212.8a6 6 0 0 1 6 6v151.8a6 6 0 0 1-6 6h-212.8a6 6 0 0 1-6-6z" stroke="#000" stroke-width="2" fill="#fff"/><use xlink:href="#F" transform="matrix(1,0,0,1,970.5434782608692,285.57142857142856) translate(22.58246527777777 52.80902777777778)"/><use xlink:href="#G" transform="matrix(1,0,0,1,970.5434782608692,285.57142857142856) translate(119.78298611111111 52.80902777777778)"/><use xlink:href="#H" transform="matrix(1,0,0,1,970.5434782608692,285.57142857142856) translate(40.17686631944444 85.07465277777777)"/><use xlink:href="#I" transform="matrix(1,0,0,1,970.5434782608692,285.57142857142856) translate(4.592013888888886 117.34027777777777)"/><use xlink:href="#J" transform="matrix(1,0,0,1,970.5434782608692,285.57142857142856) translate(95.33637152777777 117.34027777777777)"/><path d="M1191.83 362.48H1249.57" stroke="#3a414a" fill="none"/><path d="M1191.84 362.95h-.5V362h.5z" stroke="#3a414a" stroke-width=".05" fill="#3a414a"/><path d="M1264.34 362.48l-14.27 4.63v-9.26z" stroke="#3a414a" fill="#3a414a"/><path d="M2196.74 727.84v-19.5a6 6 0 0 1 6-6h243.43a6 6 0 0 0 6-6V513.9a6 6 0 0 1 6-6h202.57a6 6 0 0 0 6-6v-33.5" stroke="#3a414a" fill="none"/><path d="M2196.74 741.33l-7.5-13h15z" stroke="#3a414a" fill="#3a414a"/><path d="M2667.2 468.42h-.94v-.52h.95z" stroke="#3a414a" stroke-width=".05" fill="#3a414a"/><path d="M2125.22 247.67a6 6 0 0 1 6-6h294.52a6 6 0 0 1 6 6V460.9a6 6 0 0 1-6 6h-294.52a6 6 0 0 1-6-6z" stroke="#000" stroke-width="2" fill="#fff"/><use xlink:href="#K" transform="matrix(1,0,0,1,2137.2173913043475,253.66666666666674) translate(16.836371527777786 92.93793402777777)"/><use xlink:href="#L" transform="matrix(1,0,0,1,2137.2173913043475,253.66666666666674) translate(239.2322048611111 92.93793402777777)"/><use xlink:href="#M" transform="matrix(1,0,0,1,2137.2173913043475,253.66666666666674) translate(23.58550347222223 125.20355902777777)"/><use xlink:href="#N" transform="matrix(1,0,0,1,2137.2173913043475,253.66666666666674) translate(107.8845486111111 125.20355902777777)"/><use xlink:href="#O" transform="matrix(1,0,0,1,2137.2173913043475,253.66666666666674) translate(195.53645833333331 125.20355902777777)"/><path d="M464.9 265.08v-241" stroke="#3a414a" fill="none"/><path d="M464.9 278.57l-7.5-13h15z" stroke="#3a414a" fill="#3a414a"/><path d="M465.37 24.08h-.95v-.5h.95z" stroke="#3a414a" stroke-width=".05" fill="#3a414a"/><path d="M352.5-135.24a6 6 0 0 1 6-6h212.78a6 6 0 0 1 6 6v151.8a6 6 0 0 1-6 6H358.5a6 6 0 0 1-6-6z" stroke="#e81313" stroke-width="2" fill="#fff"/><use xlink:href="#h" transform="matrix(1,0,0,1,357.49999999999966,-136.23809523809524) translate(9.887152777777786 69.05121527777777)"/><use xlink:href="#i" transform="matrix(1,0,0,1,357.49999999999966,-136.23809523809524) translate(110.85286458333333 69.05121527777777)"/><use xlink:href="#P" transform="matrix(1,0,0,1,357.49999999999966,-136.23809523809524) translate(143.66536458333331 69.05121527777777)"/><use xlink:href="#Q" transform="matrix(1,0,0,1,357.49999999999966,-136.23809523809524) translate(58.563368055555564 101.31684027777777)"/><path d="M-894.02-137.3a6 6 0 0 1 6-6h212.78a6 6 0 0 1 6 6V14.53a6 6 0 0 1-6 6h-212.78a6 6 0 0 1-6-6z" stroke="#000" stroke-width="2" fill="#fff"/><use xlink:href="#R" transform="matrix(1,0,0,1,-889.0217391304351,-138.28571428571428) translate(29.743923611111114 69.05121527777777)"/><use xlink:href="#i" transform="matrix(1,0,0,1,-889.0217391304351,-138.28571428571428) translate(87.69748263888889 69.05121527777777)"/><use xlink:href="#S" transform="matrix(1,0,0,1,-889.0217391304351,-138.28571428571428) translate(120.50998263888889 69.05121527777777)"/><use xlink:href="#T" transform="matrix(1,0,0,1,-889.0217391304351,-138.28571428571428) translate(55.00976562500001 101.31684027777777)"/><path d="M-667.74-61.38h62.86" stroke="#3a414a" fill="none"/><path d="M-667.73-60.9h-.5v-.96h.5z" stroke="#3a414a" stroke-width=".05" fill="#3a414a"/><path d="M-590.12-61.38l-14.26 4.63v-9.27z" stroke="#3a414a" fill="#3a414a"/><path d="M-587.5-137.3a6 6 0 0 1 6-6h212.78a6 6 0 0 1 6 6V14.53a6 6 0 0 1-6 6H-581.5a6 6 0 0 1-6-6z" stroke="#000" stroke-width="2" fill="#fff"/><use xlink:href="#U" transform="matrix(1,0,0,1,-582.5000000000002,-138.28571428571428) translate(53.61545138888889 52.80902777777778)"/><use xlink:href="#V" transform="matrix(1,0,0,1,-582.5000000000002,-138.28571428571428) translate(20.9765625 85.07465277777777)"/><use xlink:href="#C" transform="matrix(1,0,0,1,-582.5000000000002,-138.28571428571428) translate(167.4609375 85.07465277777777)"/><use xlink:href="#W" transform="matrix(1,0,0,1,-582.5000000000002,-138.28571428571428) translate(68.55143229166667 117.34027777777777)"/><path d="M-361.22-61.38h62.86" stroke="#3a414a" fill="none"/><path d="M-361.2-60.9h-.52v-.96h.52z" stroke="#3a414a" stroke-width=".05" fill="#3a414a"/><path d="M-283.6-61.38l-14.26 4.63v-9.27z" stroke="#3a414a" fill="#3a414a"/><path d="M-280.98-137.3a6 6 0 0 1 6-6H-62.2a6 6 0 0 1 6 6V14.53a6 6 0 0 1-6 6h-212.78a6 6 0 0 1-6-6z" stroke="#000" stroke-width="2" fill="#fff"/><use xlink:href="#U" transform="matrix(1,0,0,1,-275.97826086956525,-138.28571428571428) translate(53.61545138888889 69.05121527777777)"/><use xlink:href="#X" transform="matrix(1,0,0,1,-275.97826086956525,-138.28571428571428) translate(44.70160590277777 101.31684027777777)"/><path d="M-54.7-61.38H8.16" stroke="#3a414a" fill="none"/><path d="M-54.68-60.9h-.52v-.96h.52z" stroke="#3a414a" stroke-width=".05" fill="#3a414a"/><path d="M22.93-61.38L8.66-56.75v-9.27z" stroke="#3a414a" fill="#3a414a"/><path d="M25.54-137.3a6 6 0 0 1 6-6h212.8a6 6 0 0 1 6 6V14.53a6 6 0 0 1-6 6H31.53a6 6 0 0 1-6-6z" stroke="#000" stroke-width="2" fill="#fff"/><g><use xlink:href="#Y" transform="matrix(1,0,0,1,30.543478260869648,-138.28571428571428) translate(22.20811631944443 52.80902777777778)"/><use xlink:href="#Z" transform="matrix(1,0,0,1,30.543478260869648,-138.28571428571428) translate(102.4490017361111 52.80902777777778)"/><use xlink:href="#aa" transform="matrix(1,0,0,1,30.543478260869648,-138.28571428571428) translate(167.73763020833334 52.80902777777778)"/><use xlink:href="#ab" transform="matrix(1,0,0,1,30.543478260869648,-138.28571428571428) translate(11.004774305555557 85.07465277777777)"/><use xlink:href="#ac" transform="matrix(1,0,0,1,30.543478260869648,-138.28571428571428) translate(114.20572916666667 85.07465277777777)"/><use xlink:href="#i" transform="matrix(1,0,0,1,30.543478260869648,-138.28571428571428) translate(5.2973090277777715 117.34027777777777)"/><use xlink:href="#ad" transform="matrix(1,0,0,1,30.543478260869648,-138.28571428571428) translate(38.10980902777777 117.34027777777777)"/><use xlink:href="#ae" transform="matrix(1,0,0,1,30.543478260869648,-138.28571428571428) translate(95.83550347222221 117.34027777777777)"/></g><path d="M251.83-61.38h62.83" stroke="#3a414a" fill="none"/><path d="M251.84-60.9h-.5v-.96h.5z" stroke="#3a414a" stroke-width=".05" fill="#3a414a"/><path d="M329.43-61.38l-14.27 4.63v-9.27z" stroke="#3a414a" fill="#3a414a"/><path d="M1920.87-178.24a6 6 0 0 1 6-6h294.52a6 6 0 0 1 6 6V35a6 6 0 0 1-6 6h-294.53a6 6 0 0 1-6-6z" stroke="#e81313" stroke-width="2" fill="#fff"/><g><use xlink:href="#af" transform="matrix(1,0,0,1,1932.869565217391,-172.23809523809524) translate(26.781032986111114 92.93793402777777)"/><use xlink:href="#i" transform="matrix(1,0,0,1,1932.869565217391,-172.23809523809524) translate(113.35872395833333 92.93793402777777)"/><use xlink:href="#ag" transform="matrix(1,0,0,1,1932.869565217391,-172.23809523809524) translate(146.17122395833331 92.93793402777777)"/><use xlink:href="#ah" transform="matrix(1,0,0,1,1932.869565217391,-172.23809523809524) translate(92.37348090277779 125.20355902777777)"/></g><path d="M1001.3-147.52a6 6 0 0 1 6-6h212.8a6 6 0 0 1 6 6V4.28a6 6 0 0 1-6 6h-212.8a6 6 0 0 1-6-6z" stroke="#000" stroke-width="2" fill="#fff"/><g><use xlink:href="#R" transform="matrix(1,0,0,1,1006.3043478260869,-148.52380952380952) translate(29.743923611111114 69.05121527777777)"/><use xlink:href="#i" transform="matrix(1,0,0,1,1006.3043478260869,-148.52380952380952) translate(87.69748263888889 69.05121527777777)"/><use xlink:href="#S" transform="matrix(1,0,0,1,1006.3043478260869,-148.52380952380952) translate(120.50998263888889 69.05121527777777)"/><use xlink:href="#ai" transform="matrix(1,0,0,1,1006.3043478260869,-148.52380952380952) translate(9.046223958333343 101.31684027777777)"/><use xlink:href="#T" transform="matrix(1,0,0,1,1006.3043478260869,-148.52380952380952) translate(100.97330729166667 101.31684027777777)"/></g><path d="M1307.83-147.52a6 6 0 0 1 6-6h212.78a6 6 0 0 1 6 6V4.28a6 6 0 0 1-6 6h-212.77a6 6 0 0 1-6-6z" stroke="#000" stroke-width="2" fill="#fff"/><g><use xlink:href="#aj" transform="matrix(1,0,0,1,1312.8260869565215,-148.52380952380952) translate(40.388454861111114 69.05121527777777)"/><use xlink:href="#ak" transform="matrix(1,0,0,1,1312.8260869565215,-148.52380952380952) translate(117.61284722222223 69.05121527777777)"/><use xlink:href="#al" transform="matrix(1,0,0,1,1312.8260869565215,-148.52380952380952) translate(18.215060763888886 101.31684027777777)"/><use xlink:href="#i" transform="matrix(1,0,0,1,1312.8260869565215,-148.52380952380952) translate(114.25455729166666 101.31684027777777)"/><use xlink:href="#am" transform="matrix(1,0,0,1,1312.8260869565215,-148.52380952380952) translate(147.06705729166666 101.31684027777777)"/></g><path d="M1614.35-147.52a6 6 0 0 1 6-6h212.78a6 6 0 0 1 6 6V4.28a6 6 0 0 1-6 6h-212.78a6 6 0 0 1-6-6z" stroke="#000" stroke-width="2" fill="#fff"/><g><use xlink:href="#an" transform="matrix(1,0,0,1,1619.3478260869565,-148.52380952380952) translate(25.099826388888886 52.80902777777778)"/><use xlink:href="#B" transform="matrix(1,0,0,1,1619.3478260869565,-148.52380952380952) translate(106.10026041666667 52.80902777777778)"/><use xlink:href="#C" transform="matrix(1,0,0,1,1619.3478260869565,-148.52380952380952) translate(163.33767361111111 52.80902777777778)"/><use xlink:href="#D" transform="matrix(1,0,0,1,1619.3478260869565,-148.52380952380952) translate(2.850477430555557 85.07465277777777)"/><use xlink:href="#ao" transform="matrix(1,0,0,1,1619.3478260869565,-148.52380952380952) translate(73.84657118055556 85.07465277777777)"/><use xlink:href="#ap" transform="matrix(1,0,0,1,1619.3478260869565,-148.52380952380952) translate(125.58268229166667 85.07465277777777)"/><use xlink:href="#C" transform="matrix(1,0,0,1,1619.3478260869565,-148.52380952380952) translate(185.58702256944446 85.07465277777777)"/><use xlink:href="#aq" transform="matrix(1,0,0,1,1619.3478260869565,-148.52380952380952) translate(52.47612847222223 117.34027777777777)"/></g><path d="M1420.22 244.26V27.66" stroke="#3a414a" fill="none"/><path d="M1420.7 244.76h-.96v-.5h.95z" stroke="#3a414a" stroke-width=".05" fill="#3a414a"/><path d="M1420.22 12.9l4.63 14.27h-9.27z" stroke="#3a414a" fill="#3a414a"/><path d="M1227.6-71.62h62.84" stroke="#3a414a" fill="none"/><path d="M1227.6-71.14h-.5v-.95h.5z" stroke="#3a414a" stroke-width=".05" fill="#3a414a"/><path d="M1305.2-71.62l-14.26 4.64v-9.27z" stroke="#3a414a" fill="#3a414a"/><path d="M1534.1-71.62h62.86" stroke="#3a414a" fill="none"/><path d="M1534.12-71.14h-.5v-.95h.5z" stroke="#3a414a" stroke-width=".05" fill="#3a414a"/><path d="M1611.73-71.62l-14.27 4.64v-9.27z" stroke="#3a414a" fill="#3a414a"/><path d="M1840.63-71.62H1903.48" stroke="#3a414a" fill="none"/><path d="M1840.64-71.14h-.5v-.95h.5z" stroke="#3a414a" stroke-width=".05" fill="#3a414a"/><path d="M1918.25-71.62l-14.27 4.64v-9.27z" stroke="#3a414a" fill="#3a414a"/><path d="M2074.13 42.5v92.83a6 6 0 0 0 6 6h192.35a6 6 0 0 1 6 6v76.95" stroke="#3a414a" fill="none"/><path d="M2074.6 42.5h-.94V42h.95z" stroke="#3a414a" stroke-width=".05" fill="#3a414a"/><path d="M2278.48 239.05l-4.64-14.27h9.27z" stroke="#3a414a" fill="#3a414a"/><path d="M2109.73 354.3h-64.75" stroke="#3a414a" fill="none"/><path d="M2123.22 354.3l-13 7.5v-15z" stroke="#3a414a" fill="#3a414a"/><path d="M2045 354.76h-.52v-.95h.5z" stroke="#3a414a" stroke-width=".05" fill="#3a414a"/><path d="M1736.96 247.67a6 6 0 0 1 6-6h294.52a6 6 0 0 1 6 6V460.9a6 6 0 0 1-6 6h-294.52a6 6 0 0 1-6-6z" stroke="#000" stroke-width="2" fill="#fff"/><g><use xlink:href="#A" transform="matrix(1,0,0,1,1748.95652173913,253.66666666666674) translate(21.692057291666657 109.11371527777777)"/><use xlink:href="#X" transform="matrix(1,0,0,1,1748.95652173913,253.66666666666674) translate(135.71115451388886 109.11371527777777)"/></g><path d="M2433.24 354.3h62.85" stroke="#3a414a" fill="none"/><path d="M2433.25 354.76h-.5v-.95h.5z" stroke="#3a414a" stroke-width=".05" fill="#3a414a"/><path d="M2510.86 354.3l-14.27 4.62v-9.27z" stroke="#3a414a" fill="#3a414a"/><path d="M2513.48 247.67a6 6 0 0 1 6-6H2814a6 6 0 0 1 6 6V460.9a6 6 0 0 1-6 6h-294.52a6 6 0 0 1-6-6z" stroke="#000" stroke-width="2" fill="#fff"/><g><use xlink:href="#ar" transform="matrix(1,0,0,1,2525.478260869565,253.66666666666674) translate(1.178819444444457 92.93793402777777)"/><use xlink:href="#y" transform="matrix(1,0,0,1,2525.478260869565,253.66666666666674) translate(91.6953125 92.93793402777777)"/><use xlink:href="#as" transform="matrix(1,0,0,1,2525.478260869565,253.66666666666674) translate(124.87673611111111 92.93793402777777)"/><use xlink:href="#at" transform="matrix(1,0,0,1,2525.478260869565,253.66666666666674) translate(203.76128472222223 92.93793402777777)"/><use xlink:href="#au" transform="matrix(1,0,0,1,2525.478260869565,253.66666666666674) translate(80.03624131944446 125.20355902777777)"/></g><path d="M580-634a6 6 0 0 1 6-6h708a6 6 0 0 1 6 6v312.27a6 6 0 0 1-6 6H586a6 6 0 0 1-6-6z" fill="none"/><g><use xlink:href="#av" transform="matrix(1,0,0,1,585,-635) translate(61.331380208333314 133.35286458333331)"/><use xlink:href="#aw" transform="matrix(1,0,0,1,585,-635) translate(254.03971354166666 133.35286458333331)"/><use xlink:href="#ax" transform="matrix(1,0,0,1,585,-635) translate(199.44986979166663 230.14973958333334)"/></g><defs><path d="M180 0v-1490h510c348 0 508 209 508 474 0 266-160 477-507 477H370V0H180zm190-706h312c236 0 327-133 327-310 0-176-91-307-329-307H370v617" id="ay"/><path d="M158 0v-1118h174v172h12c41-113 157-188 290-188 26 0 70 2 91 3v181c-11-2-60-10-108-10-161 0-279 109-279 260V0H158" id="az"/><path d="M613 24c-304 0-509-231-509-576 0-350 205-580 509-580 305 0 511 230 511 580 0 345-206 576-511 576zm0-161c226 0 329-195 329-415 0-222-103-419-329-419-223 0-326 196-326 419 0 220 103 415 326 415" id="aA"/><path d="M577 24c-279 0-473-224-473-580 0-354 195-576 474-576 218 0 287 134 324 193h14v-551h180V0H922v-173h-20C865-111 790 24 577 24zm27-161c203 0 314-172 314-421 0-247-108-413-314-413-212 0-317 181-317 413 0 235 108 421 317 421" id="aB"/><path d="M537 14c-226 0-379-139-379-422v-710h180v695c0 172 97 275 253 275 160 0 281-109 281-300v-670h181V0H879v-209C806-46 684 14 537 14" id="aC"/><path d="M502 418V313h118c73 0 98-17 98-66s-25-65-98-65h-82l21-161C285-4 104-228 104-552c0-350 205-580 509-580 216 0 392 114 453 309l-173 49c-33-115-133-197-280-197-223 0-326 196-326 419 0 220 103 415 326 415 150 0 252-85 285-206l172 49C1015-110 859 5 663 22v64c130 5 189 54 189 162 0 118-71 170-231 170H502" id="aD"/><path d="M471 26C259 26 90-98 90-318c0-256 228-303 435-329 202-27 287-16 287-108 0-139-79-219-234-219-161 0-248 86-283 164l-173-57c86-203 278-265 451-265 150 0 419 46 419 395V0H815v-152h-12C765-73 660 26 471 26zm31-159c199 0 310-134 310-271v-155c-30 35-226 55-295 64-131 17-246 59-246 186 0 116 97 176 231 176zm187-1180c-99 0-192-83-243-83-35 0-51 40-53 79H267c4-120 55-208 162-208 104 0 174 85 241 85 33 0 49-23 56-81h123c-4 126-62 208-160 208" id="aE"/><path d="M692-1560L212 224H46l480-1784h166" id="aF"/><path d="M158 0v-1118h180V0H158zm91-1301c-68 0-125-53-125-119s57-119 125-119c69 0 126 53 126 119s-57 119-126 119" id="aG"/><path d="M338-670V0H158v-1118h173l1 207c72-158 192-221 342-221 226 0 378 139 378 422V0H872v-695c0-172-96-275-252-275-161 0-282 109-282 300" id="aH"/><path d="M678-1118v154H420V0H240v-964H20v-154h220v-149c0-194 155-293 318-293 85 0 141 18 168 30l-50 154c-19-6-47-17-97-17-111 0-159 58-159 166v109h258" id="aI"/><path d="M628 24c-324 0-524-230-524-574 0-343 198-582 503-582 237 0 487 146 487 559v75H286c9 234 145 362 343 362 132 0 231-58 273-172l174 48C1024-91 857 24 628 24zM287-650h624c-17-190-120-322-304-322-192 0-309 151-320 322" id="aJ"/><path d="M613 24c-304 0-509-231-509-576 0-350 205-580 509-580 216 0 392 114 453 309l-173 49c-33-115-133-197-280-197-223 0-326 196-326 419 0 220 103 415 326 415 150 0 252-85 285-206l172 49C1010-95 832 24 613 24" id="aK"/><path d="M471 26C259 26 90-98 90-318c0-256 228-303 435-329 202-27 287-16 287-108 0-139-79-219-234-219-161 0-248 86-283 164l-173-57c86-203 278-265 451-265 150 0 419 46 419 395V0H815v-152h-12C765-73 660 26 471 26zm31-159c199 0 310-134 310-271v-155c-30 35-226 55-295 64-131 17-246 59-246 186 0 116 97 176 231 176" id="aL"/><g id="a"><use transform="matrix(0.013020833333333334,0,0,0.013020833333333334,0,0)" xlink:href="#ay"/><use transform="matrix(0.013020833333333334,0,0,0.013020833333333334,17.03125,0)" xlink:href="#az"/><use transform="matrix(0.013020833333333334,0,0,0.013020833333333334,26.627604166666668,0)" xlink:href="#aA"/><use transform="matrix(0.013020833333333334,0,0,0.013020833333333334,42.6171875,0)" xlink:href="#aB"/><use transform="matrix(0.013020833333333334,0,0,0.013020833333333334,58.9453125,0)" xlink:href="#aC"/><use transform="matrix(0.013020833333333334,0,0,0.013020833333333334,74.71354166666667,0)" xlink:href="#aD"/><use transform="matrix(0.013020833333333334,0,0,0.013020833333333334,90.20833333333334,0)" xlink:href="#aE"/><use transform="matrix(0.013020833333333334,0,0,0.013020833333333334,105.18229166666667,0)" xlink:href="#aA"/><use transform="matrix(0.013020833333333334,0,0,0.013020833333333334,121.171875,0)" xlink:href="#aF"/><use transform="matrix(0.013020833333333334,0,0,0.013020833333333334,130.78125,0)" xlink:href="#aG"/><use transform="matrix(0.013020833333333334,0,0,0.013020833333333334,137.23958333333334,0)" xlink:href="#aH"/><use transform="matrix(0.013020833333333334,0,0,0.013020833333333334,152.99479166666669,0)" xlink:href="#aI"/><use transform="matrix(0.013020833333333334,0,0,0.013020833333333334,162.08333333333334,0)" xlink:href="#aJ"/><use transform="matrix(0.013020833333333334,0,0,0.013020833333333334,177.63020833333334,0)" xlink:href="#az"/><use transform="matrix(0.013020833333333334,0,0,0.013020833333333334,187.2265625,0)" xlink:href="#aJ"/><use transform="matrix(0.013020833333333334,0,0,0.013020833333333334,202.7734375,0)" xlink:href="#aH"/><use transform="matrix(0.013020833333333334,0,0,0.013020833333333334,218.52864583333334,0)" xlink:href="#aK"/><use transform="matrix(0.013020833333333334,0,0,0.013020833333333334,233.76302083333334,0)" xlink:href="#aG"/><use transform="matrix(0.013020833333333334,0,0,0.013020833333333334,240.22135416666669,0)" xlink:href="#aL"/></g><path d="M135 0v-1490h581c339 0 533 210 533 503 0 295-197 500-540 500H440V0H135zm305-733h220c186 0 274-104 274-254s-88-251-275-251H440v505" id="aM"/><path d="M786 20C389 20 94-260 94-744c0-487 299-766 692-766 339 0 597 194 641 529h-309c-28-162-156-258-326-258-233 0-388 179-388 495 0 323 157 493 387 493 170 0 298-97 328-259h309c-34 277-266 530-642 530" id="aN"/><path d="M49 0l509-1490h400L1480 0h-339l-115-346H497L386 0H49zm524-585h374c-75-213-124-402-192-666-66 268-110 453-182 666" id="aO"/><g id="b"><use transform="matrix(0.013020833333333334,0,0,0.013020833333333334,0,0)" xlink:href="#aM"/><use transform="matrix(0.013020833333333334,0,0,0.013020833333333334,17.278645833333336,0)" xlink:href="#aN"/><use transform="matrix(0.013020833333333334,0,0,0.013020833333333334,36.27604166666667,0)" xlink:href="#aO"/></g><path d="M75-1237v-253h1217v253H837V0H531v-1237H75" id="aP"/><path d="M128 0v-1118h290v195h12c54-169 184-238 367-200v268c-27-8-86-15-130-15-138 0-239 95-239 234V0H128" id="aQ"/><path d="M633 22C291 22 81-200 81-553c0-345 210-579 537-579 292 0 525 185 525 567v84H378c7 183 109 277 260 277 105 0 184-46 216-132l272 51C1071-99 893 22 633 22zM380-669h474c-15-146-94-237-233-237-143 0-229 99-241 237" id="aR"/><path d="M128 0v-1118h300V0H128zm150-1264c-91 0-165-68-165-154 0-85 74-154 165-154 90 0 165 69 165 154 0 86-75 154-165 154" id="aS"/><path d="M428-647V0H128v-1118h283l4 231c63-156 176-245 348-245 232 0 384 159 384 421V0H847v-659c0-139-76-222-202-222-128 0-217 86-217 234" id="aT"/><path d="M440 22C227 22 68-92 68-313c0-250 202-322 422-343 195-21 271-24 271-105 0-95-63-149-175-149-116 0-187 57-211 129l-275-46c57-194 237-305 487-305 240 0 474 108 474 379V0H777v-155h-10C713-51 605 22 440 22zm85-211c140 0 238-93 238-211v-121c-37 26-156 42-222 51-111 16-185 59-185 149 0 87 70 132 169 132" id="aU"/><path d="M128 0v-1118h278l12 217c60-163 185-234 319-234 143 0 236 81 288 251 63-172 205-251 359-251 205 0 357 138 357 381V0h-301v-697c0-126-76-187-177-187-114 0-184 79-184 196V0H789v-705c0-109-72-179-174-179-106 0-187 74-187 208V0H128" id="aV"/><path d="M683-1118v229H474v562c0 71 29 104 102 104 23 0 73-7 95-13l43 225C647 9 580 16 520 16 296 16 174-96 174-301v-588H20v-229h154v-266h300v266h209" id="aW"/><path d="M628 22C291 22 81-210 81-554c0-346 210-578 547-578 336 0 547 232 547 578 0 344-211 576-547 576zm0-236c160 0 242-146 242-341 0-197-82-341-242-341S387-753 387-555c0 195 81 341 241 341" id="aX"/><g id="c"><use transform="matrix(0.01193576388888889,0,0,0.01193576388888889,0,0)" xlink:href="#aP"/><use transform="matrix(0.01193576388888889,0,0,0.01193576388888889,14.931640625000002,0)" xlink:href="#aQ"/><use transform="matrix(0.01193576388888889,0,0,0.01193576388888889,24.28927951388889,0)" xlink:href="#aR"/><use transform="matrix(0.01193576388888889,0,0,0.01193576388888889,38.850911458333336,0)" xlink:href="#aS"/><use transform="matrix(0.01193576388888889,0,0,0.01193576388888889,45.47526041666667,0)" xlink:href="#aT"/><use transform="matrix(0.01193576388888889,0,0,0.01193576388888889,60.69335937500001,0)" xlink:href="#aU"/><use transform="matrix(0.01193576388888889,0,0,0.01193576388888889,74.8849826388889,0)" xlink:href="#aV"/><use transform="matrix(0.01193576388888889,0,0,0.01193576388888889,97.19292534722223,0)" xlink:href="#aR"/><use transform="matrix(0.01193576388888889,0,0,0.01193576388888889,111.75455729166667,0)" xlink:href="#aT"/><use transform="matrix(0.01193576388888889,0,0,0.01193576388888889,126.97265625000001,0)" xlink:href="#aW"/><use transform="matrix(0.01193576388888889,0,0,0.01193576388888889,135.68576388888889,0)" xlink:href="#aX"/></g><path d="M135 0v-1490h340l471 754c59 97 122 210 187 365-32-387-14-721-19-1119h312V0h-341C855-382 627-689 427-1113c32 420 16 695 20 1113H135" id="aY"/><g id="d"><use transform="matrix(0.01193576388888889,0,0,0.01193576388888889,0,0)" xlink:href="#aN"/><use transform="matrix(0.01193576388888889,0,0,0.01193576388888889,18.082682291666668,0)" xlink:href="#aY"/><use transform="matrix(0.01193576388888889,0,0,0.01193576388888889,36.71440972222223,0)" xlink:href="#aY"/></g><path d="M135 0v-1490h468l242 684c30 94 76 293 111 455 34-161 80-360 110-455l238-684h470V0h-307c0-447-3-765 11-1227-122 503-246 788-395 1227H826C676-435 552-717 427-1215c15 453 11 775 11 1215H135" id="aZ"/><path d="M135 0v-1490h305v1237h643V0H135" id="ba"/><g id="e"><use transform="matrix(0.013020833333333334,0,0,0.013020833333333334,0,0)" xlink:href="#aZ"/><use transform="matrix(0.013020833333333334,0,0,0.013020833333333334,24.84375,0)" xlink:href="#ba"/><use transform="matrix(0.013020833333333334,0,0,0.013020833333333334,39.921875,0)" xlink:href="#aM"/></g><path d="M180 0v-1490h510c348 0 508 194 508 460 0 198-88 351-276 417L1256 0h-220L726-579c-117 2-238 0-356 1V0H180zm190-747h312c235 0 327-108 327-283 0-177-92-293-329-293H370v576" id="bb"/><path d="M677 24c-213 0-288-135-325-197h-20V0H158v-1490h180v551h14c37-59 106-193 324-193 279 0 474 222 474 576 0 356-194 580-473 580zm-27-161c209 0 317-186 317-421 0-232-105-413-317-413-206 0-314 166-314 413 0 249 111 421 314 421" id="bc"/><g id="f"><use transform="matrix(0.010850694444444444,0,0,0.010850694444444444,0,0)" xlink:href="#bb"/><use transform="matrix(0.010850694444444444,0,0,0.010850694444444444,13.975694444444445,0)" xlink:href="#aJ"/><use transform="matrix(0.010850694444444444,0,0,0.010850694444444444,26.931423611111104,0)" xlink:href="#aK"/><use transform="matrix(0.010850694444444444,0,0,0.010850694444444444,39.62673611111111,0)" xlink:href="#aJ"/><use transform="matrix(0.010850694444444444,0,0,0.010850694444444444,52.58246527777778,0)" xlink:href="#bc"/><use transform="matrix(0.010850694444444444,0,0,0.010850694444444444,66.1892361111111,0)" xlink:href="#aJ"/><use transform="matrix(0.010850694444444444,0,0,0.010850694444444444,79.14496527777777,0)" xlink:href="#az"/></g><path d="M158 0v-1118h175l1 205c55-151 181-225 313-225 147 0 245 90 285 228 53-141 190-228 352-228 194 0 352 125 352 384V0h-181v-749c0-161-105-225-225-225-151 0-243 103-243 244V0H807v-767c0-124-93-207-219-207-131 0-250 92-250 270V0H158" id="bd"/><path d="M611 442c-248 0-391-105-460-228l146-94c47 65 117 165 314 165 178 0 307-82 307-266v-224h-17C863-141 792-18 576-18c-268 0-472-195-472-546 0-346 197-568 476-568 216 0 288 133 326 193h17v-179h175V29c0 289-215 413-487 413zm-5-620c203 0 314-146 314-390 0-237-108-403-314-403-213 0-319 180-319 403 0 230 109 390 319 390" id="be"/><g id="g"><use transform="matrix(0.010850694444444444,0,0,0.010850694444444444,0,0)" xlink:href="#aG"/><use transform="matrix(0.010850694444444444,0,0,0.010850694444444444,5.381944444444445,0)" xlink:href="#bd"/><use transform="matrix(0.010850694444444444,0,0,0.010850694444444444,24.84809027777778,0)" xlink:href="#aL"/><use transform="matrix(0.010850694444444444,0,0,0.010850694444444444,37.326388888888886,0)" xlink:href="#be"/><use transform="matrix(0.010850694444444444,0,0,0.010850694444444444,50.95486111111111,0)" xlink:href="#aJ"/><use transform="matrix(0.010850694444444444,0,0,0.010850694444444444,63.91059027777778,0)" xlink:href="#bd"/></g><path d="M783 20c-382 0-661-292-661-764 0-473 279-766 661-766 302 0 548 182 601 489h-190c-42-204-217-313-411-313-268 0-476 208-476 590 0 381 209 588 476 588 195 0 369-110 411-313h190c-52 303-296 489-601 489" id="bf"/><path d="M157-1118h181V80c1 225-123 350-364 338V252c126 9 184-48 183-172v-1198zm91-183c-68 0-125-53-125-119s57-119 125-119c69 0 126 53 126 119s-57 119-126 119" id="bg"/><path d="M598-1118v154H368v674c0 100 37 144 132 144 23 0 62-6 92-12L629-6c-37 13-88 20-134 20-193 0-307-107-307-290v-688H20v-154h168v-266h180v266h230" id="bh"/><g id="h"><use transform="matrix(0.010850694444444444,0,0,0.010850694444444444,0,0)" xlink:href="#bf"/><use transform="matrix(0.010850694444444444,0,0,0.010850694444444444,16.23263888888889,0)" xlink:href="#aA"/><use transform="matrix(0.010850694444444444,0,0,0.010850694444444444,29.557291666666664,0)" xlink:href="#aH"/><use transform="matrix(0.010850694444444444,0,0,0.010850694444444444,42.68663194444444,0)" xlink:href="#bg"/><use transform="matrix(0.010850694444444444,0,0,0.010850694444444444,48.068576388888886,0)" xlink:href="#aC"/><use transform="matrix(0.010850694444444444,0,0,0.010850694444444444,61.20876736111111,0)" xlink:href="#aH"/><use transform="matrix(0.010850694444444444,0,0,0.010850694444444444,74.33810763888889,0)" xlink:href="#bh"/><use transform="matrix(0.010850694444444444,0,0,0.010850694444444444,81.39105902777777,0)" xlink:href="#aA"/></g><g id="i"><use transform="matrix(0.010850694444444444,0,0,0.010850694444444444,0,0)" xlink:href="#aB"/><use transform="matrix(0.010850694444444444,0,0,0.010850694444444444,13.606770833333332,0)" xlink:href="#aJ"/></g><path d="M180 0v-1490h224l606 953c40 63 108 177 176 312-27-437-7-821-13-1265h190V0h-226C860-448 622-778 356-1262c27 476 11 792 15 1262H180" id="bi"/><path d="M538 24C308 24 148-78 108-271l171-41c32 123 123 178 257 178 156 0 256-77 256-169 0-77-54-128-164-154l-186-44c-203-48-300-148-300-305 0-192 176-326 414-326 230 0 351 112 402 269l-163 42c-31-80-94-158-238-158-133 0-233 69-233 162 0 83 57 129 188 160l169 40c203 48 298 149 298 302 0 196-179 339-441 339" id="bj"/><g id="j"><use transform="matrix(0.010850694444444444,0,0,0.010850694444444444,0,0)" xlink:href="#bf"/><use transform="matrix(0.010850694444444444,0,0,0.010850694444444444,16.23263888888889,0)" xlink:href="#bi"/><use transform="matrix(0.010850694444444444,0,0,0.010850694444444444,32.97526041666667,0)" xlink:href="#bi"/><use transform="matrix(0.010850694444444444,0,0,0.010850694444444444,49.71788194444445,0)" xlink:href="#bj"/></g><path d="M180 0v-1490h190v1322h690V0H180" id="bk"/><g id="k"><use transform="matrix(0.010850694444444444,0,0,0.010850694444444444,0,0)" xlink:href="#bk"/><use transform="matrix(0.010850694444444444,0,0,0.010850694444444444,12.565104166666666,0)" xlink:href="#aG"/><use transform="matrix(0.010850694444444444,0,0,0.010850694444444444,17.94704861111111,0)" xlink:href="#bj"/><use transform="matrix(0.010850694444444444,0,0,0.010850694444444444,29.67664930555556,0)" xlink:href="#bh"/><use transform="matrix(0.010850694444444444,0,0,0.010850694444444444,37.05512152777778,0)" xlink:href="#aL"/></g><g id="l"><use transform="matrix(0.010850694444444444,0,0,0.010850694444444444,0,0)" xlink:href="#aK"/><use transform="matrix(0.010850694444444444,0,0,0.010850694444444444,12.91232638888889,0)" xlink:href="#aL"/><use transform="matrix(0.010850694444444444,0,0,0.010850694444444444,25.390625,0)" xlink:href="#az"/><use transform="matrix(0.010850694444444444,0,0,0.010850694444444444,33.756510416666664,0)" xlink:href="#aL"/><use transform="matrix(0.010850694444444444,0,0,0.010850694444444444,46.23480902777778,0)" xlink:href="#aK"/><use transform="matrix(0.010850694444444444,0,0,0.010850694444444444,58.93012152777778,0)" xlink:href="#bh"/><use transform="matrix(0.010850694444444444,0,0,0.010850694444444444,65.98307291666666,0)" xlink:href="#aJ"/><use transform="matrix(0.010850694444444444,0,0,0.010850694444444444,78.93880208333333,0)" xlink:href="#az"/><use transform="matrix(0.010850694444444444,0,0,0.010850694444444444,87.65190972222223,0)" xlink:href="#aG"/><use transform="matrix(0.010850694444444444,0,0,0.010850694444444444,93.03385416666666,0)" xlink:href="#bj"/><use transform="matrix(0.010850694444444444,0,0,0.010850694444444444,104.76345486111111,0)" xlink:href="#bh"/><use transform="matrix(0.010850694444444444,0,0,0.010850694444444444,112.03342013888889,0)" xlink:href="#aG"/><use transform="matrix(0.010850694444444444,0,0,0.010850694444444444,117.41536458333333,0)" xlink:href="#aK"/><use transform="matrix(0.010850694444444444,0,0,0.010850694444444444,130.32769097222223,0)" xlink:href="#aL"/><use transform="matrix(0.010850694444444444,0,0,0.010850694444444444,142.80598958333334,0)" xlink:href="#bj"/></g><path d="M218-607c0-325 108-727 258-974h175c-155 315-250 682-250 974 0 265 78 531 250 886H476C306-10 218-315 218-607" id="bl"/><path d="M657 26c-323 0-524-166-541-416h195c15 169 171 246 346 246 202 0 356-106 356-265 5-203-294-238-475-293-239-73-380-191-380-389 0-252 224-419 512-419 294 0 499 171 508 396H992c-17-145-151-228-328-228-193 0-321 102-321 242 0 156 175 211 284 241l149 41c160 44 422 134 422 412 0 244-197 432-541 432" id="bm"/><path d="M96 279C273-86 346-350 346-607c0-292-95-659-250-974h175c150 246 258 650 258 974 0 297-91 602-258 886H96" id="bn"/><g id="m"><use transform="matrix(0.010850694444444444,0,0,0.010850694444444444,0,0)" xlink:href="#bl"/><use transform="matrix(0.010850694444444444,0,0,0.010850694444444444,8.10546875,0)" xlink:href="#bm"/><use transform="matrix(0.010850694444444444,0,0,0.010850694444444444,22.36328125,0)" xlink:href="#aG"/><use transform="matrix(0.010850694444444444,0,0,0.010850694444444444,27.745225694444443,0)" xlink:href="#be"/><use transform="matrix(0.010850694444444444,0,0,0.010850694444444444,41.373697916666664,0)" xlink:href="#bd"/><use transform="matrix(0.010850694444444444,0,0,0.010850694444444444,60.83984375,0)" xlink:href="#aA"/><use transform="matrix(0.010850694444444444,0,0,0.010850694444444444,74.16449652777777,0)" xlink:href="#aG"/><use transform="matrix(0.010850694444444444,0,0,0.010850694444444444,79.54644097222221,0)" xlink:href="#aB"/><use transform="matrix(0.010850694444444444,0,0,0.010850694444444444,93.15321180555556,0)" xlink:href="#aJ"/><use transform="matrix(0.010850694444444444,0,0,0.010850694444444444,105.85937499999997,0)" xlink:href="#bn"/></g><g id="n"><use transform="matrix(0.010850694444444444,0,0,0.010850694444444444,0,0)" xlink:href="#ay"/><use transform="matrix(0.010850694444444444,0,0,0.010850694444444444,14.192708333333332,0)" xlink:href="#aL"/><use transform="matrix(0.010850694444444444,0,0,0.010850694444444444,26.671006944444443,0)" xlink:href="#bj"/><use transform="matrix(0.010850694444444444,0,0,0.010850694444444444,38.400607638888886,0)" xlink:href="#bj"/><use transform="matrix(0.010850694444444444,0,0,0.010850694444444444,50.13020833333333,0)" xlink:href="#aL"/></g><path d="M158 418v-1536h174v179h20c37-59 106-193 324-193 279 0 474 222 474 576 0 356-194 580-473 580-213 0-288-135-325-197h-14v591H158zm492-555c209 0 317-186 317-421 0-232-105-413-317-413-206 0-314 166-314 413 0 249 111 421 314 421" id="bo"/><path d="M338-1490V0H158v-1490h180" id="bp"/><g id="o"><use transform="matrix(0.010850694444444444,0,0,0.010850694444444444,0,0)" xlink:href="#bo"/><use transform="matrix(0.010850694444444444,0,0,0.010850694444444444,13.606770833333332,0)" xlink:href="#aJ"/><use transform="matrix(0.010850694444444444,0,0,0.010850694444444444,26.5625,0)" xlink:href="#bp"/><use transform="matrix(0.010850694444444444,0,0,0.010850694444444444,31.944444444444443,0)" xlink:href="#aA"/></g><path d="M180 0v-1490h270l367 940c28 72 75 218 110 339 35-117 81-264 110-339l362-940h271V0h-187c2-448-5-837 7-1287-157 497-311 829-483 1287H842C666-458 514-784 354-1284c12 438 5 843 7 1284H180" id="bq"/><g id="p"><use transform="matrix(0.010850694444444444,0,0,0.010850694444444444,0,0)" xlink:href="#bq"/><use transform="matrix(0.010850694444444444,0,0,0.010850694444444444,20.07378472222222,0)" xlink:href="#bk"/><use transform="matrix(0.010850694444444444,0,0,0.010850694444444444,32.638888888888886,0)" xlink:href="#ay"/></g><g id="q"><use transform="matrix(0.010850694444444444,0,0,0.010850694444444444,0,0)" xlink:href="#bb"/><use transform="matrix(0.010850694444444444,0,0,0.010850694444444444,13.975694444444445,0)" xlink:href="#aJ"/><use transform="matrix(0.010850694444444444,0,0,0.010850694444444444,26.931423611111104,0)" xlink:href="#bh"/><use transform="matrix(0.010850694444444444,0,0,0.010850694444444444,33.98437499999999,0)" xlink:href="#aA"/><use transform="matrix(0.010850694444444444,0,0,0.010850694444444444,47.30902777777778,0)" xlink:href="#az"/><use transform="matrix(0.010850694444444444,0,0,0.010850694444444444,56.02213541666666,0)" xlink:href="#aH"/><use transform="matrix(0.010850694444444444,0,0,0.010850694444444444,69.15147569444443,0)" xlink:href="#aL"/></g><use transform="matrix(0.010850694444444444,0,0,0.010850694444444444,0,0)" xlink:href="#aL" id="r"/><g id="s"><use transform="matrix(0.010850694444444444,0,0,0.010850694444444444,0,0)" xlink:href="#aK"/><use transform="matrix(0.010850694444444444,0,0,0.010850694444444444,12.6953125,0)" xlink:href="#bp"/><use transform="matrix(0.010850694444444444,0,0,0.010850694444444444,18.077256944444443,0)" xlink:href="#aL"/><use transform="matrix(0.010850694444444444,0,0,0.010850694444444444,30.555555555555554,0)" xlink:href="#bj"/><use transform="matrix(0.010850694444444444,0,0,0.010850694444444444,42.28515625,0)" xlink:href="#bj"/><use transform="matrix(0.010850694444444444,0,0,0.010850694444444444,54.01475694444444,0)" xlink:href="#aG"/><use transform="matrix(0.010850694444444444,0,0,0.010850694444444444,59.396701388888886,0)" xlink:href="#aI"/><use transform="matrix(0.010850694444444444,0,0,0.010850694444444444,67.62152777777777,0)" xlink:href="#aG"/><use transform="matrix(0.010850694444444444,0,0,0.010850694444444444,73.00347222222221,0)" xlink:href="#aK"/><use transform="matrix(0.010850694444444444,0,0,0.010850694444444444,85.9157986111111,0)" xlink:href="#aL"/><use transform="matrix(0.010850694444444444,0,0,0.010850694444444444,98.39409722222221,0)" xlink:href="#aD"/><use transform="matrix(0.010850694444444444,0,0,0.010850694444444444,111.3064236111111,0)" xlink:href="#aE"/><use transform="matrix(0.010850694444444444,0,0,0.010850694444444444,123.78472222222221,0)" xlink:href="#aA"/></g><g id="t"><use transform="matrix(0.010850694444444444,0,0,0.010850694444444444,0,0)" xlink:href="#aB"/><use transform="matrix(0.010850694444444444,0,0,0.010850694444444444,13.606770833333332,0)" xlink:href="#aL"/></g><g id="u"><use transform="matrix(0.010850694444444444,0,0,0.010850694444444444,0,0)" xlink:href="#aK"/><use transform="matrix(0.010850694444444444,0,0,0.010850694444444444,12.6953125,0)" xlink:href="#aC"/><use transform="matrix(0.010850694444444444,0,0,0.010850694444444444,25.83550347222222,0)" xlink:href="#bp"/><use transform="matrix(0.010850694444444444,0,0,0.010850694444444444,31.54296875,0)" xlink:href="#bh"/><use transform="matrix(0.010850694444444444,0,0,0.010850694444444444,38.81293402777778,0)" xlink:href="#aC"/><use transform="matrix(0.010850694444444444,0,0,0.010850694444444444,51.953125,0)" xlink:href="#az"/><use transform="matrix(0.010850694444444444,0,0,0.010850694444444444,60.319010416666664,0)" xlink:href="#aL"/></g><path d="M645 0H180v-1490h484c435 0 692 280 692 742 0 466-257 748-711 748zM370-168h263c363 0 539-218 539-580 0-358-176-574-521-574H370v1154" id="br"/><path d="M409 0L70-1118h191c89 329 165 560 243 925 75-353 154-601 240-925h192c85 325 161 564 235 922 77-354 157-598 244-922h191L1267 0h-179c-86-307-176-590-250-913C763-588 675-308 588 0H409" id="bs"/><g id="v"><use transform="matrix(0.010850694444444444,0,0,0.010850694444444444,0,0)" xlink:href="#br"/><use transform="matrix(0.010850694444444444,0,0,0.010850694444444444,16.03732638888889,0)" xlink:href="#aA"/><use transform="matrix(0.010850694444444444,0,0,0.010850694444444444,28.96050347222222,0)" xlink:href="#bs"/><use transform="matrix(0.010850694444444444,0,0,0.010850694444444444,47.14626736111111,0)" xlink:href="#aH"/><use transform="matrix(0.010850694444444444,0,0,0.010850694444444444,60.2756076388889,0)" xlink:href="#bp"/><use transform="matrix(0.010850694444444444,0,0,0.010850694444444444,65.65755208333334,0)" xlink:href="#aA"/><use transform="matrix(0.010850694444444444,0,0,0.010850694444444444,79.19921875,0)" xlink:href="#aL"/><use transform="matrix(0.010850694444444444,0,0,0.010850694444444444,91.67751736111111,0)" xlink:href="#aB"/></g><g id="w"><use transform="matrix(0.010850694444444444,0,0,0.010850694444444444,0,0)" xlink:href="#bl"/><use transform="matrix(0.010850694444444444,0,0,0.010850694444444444,8.10546875,0)" xlink:href="#bm"/><use transform="matrix(0.010850694444444444,0,0,0.010850694444444444,22.36328125,0)" xlink:href="#aJ"/><use transform="matrix(0.010850694444444444,0,0,0.010850694444444444,35.319010416666664,0)" xlink:href="#aH"/><use transform="matrix(0.010850694444444444,0,0,0.010850694444444444,48.44835069444444,0)" xlink:href="#bh"/><use transform="matrix(0.010850694444444444,0,0,0.010850694444444444,55.71831597222222,0)" xlink:href="#aG"/><use transform="matrix(0.010850694444444444,0,0,0.010850694444444444,61.100260416666664,0)" xlink:href="#aH"/><use transform="matrix(0.010850694444444444,0,0,0.010850694444444444,74.22960069444444,0)" xlink:href="#aJ"/><use transform="matrix(0.010850694444444444,0,0,0.010850694444444444,87.18532986111111,0)" xlink:href="#bp"/><use transform="matrix(0.010850694444444444,0,0,0.010850694444444444,92.56727430555556,0)" xlink:href="#bn"/></g><g id="x"><use transform="matrix(0.010850694444444444,0,0,0.010850694444444444,0,0)" xlink:href="#bb"/><use transform="matrix(0.010850694444444444,0,0,0.010850694444444444,13.975694444444445,0)" xlink:href="#aJ"/><use transform="matrix(0.010850694444444444,0,0,0.010850694444444444,26.931423611111104,0)" xlink:href="#bj"/><use transform="matrix(0.010850694444444444,0,0,0.010850694444444444,38.66102430555555,0)" xlink:href="#aC"/><use transform="matrix(0.010850694444444444,0,0,0.010850694444444444,51.80121527777778,0)" xlink:href="#bp"/><use transform="matrix(0.010850694444444444,0,0,0.010850694444444444,57.50868055555555,0)" xlink:href="#bh"/><use transform="matrix(0.010850694444444444,0,0,0.010850694444444444,64.88715277777777,0)" xlink:href="#aL"/><use transform="matrix(0.010850694444444444,0,0,0.010850694444444444,77.36545138888889,0)" xlink:href="#aB"/><use transform="matrix(0.010850694444444444,0,0,0.010850694444444444,90.97222222222221,0)" xlink:href="#aA"/></g><g id="y"><use transform="matrix(0.010850694444444444,0,0,0.010850694444444444,0,0)" xlink:href="#aB"/><use transform="matrix(0.010850694444444444,0,0,0.010850694444444444,13.606770833333332,0)" xlink:href="#aA"/></g><path d="M52 0l541-1490h220L1361 0h-200l-149-416H398L254 0H52zm404-582h497c-103-290-145-390-251-756-108 377-145 460-246 756" id="bt"/><g id="z"><use transform="matrix(0.010850694444444444,0,0,0.010850694444444444,0,0)" xlink:href="#ay"/><use transform="matrix(0.010850694444444444,0,0,0.010850694444444444,14.192708333333332,0)" xlink:href="#bf"/><use transform="matrix(0.010850694444444444,0,0,0.010850694444444444,29.991319444444443,0)" xlink:href="#bt"/></g><g id="A"><use transform="matrix(0.010850694444444444,0,0,0.010850694444444444,0,0)" xlink:href="#br"/><use transform="matrix(0.010850694444444444,0,0,0.010850694444444444,16.03732638888889,0)" xlink:href="#aG"/><use transform="matrix(0.010850694444444444,0,0,0.010850694444444444,21.419270833333336,0)" xlink:href="#aI"/><use transform="matrix(0.010850694444444444,0,0,0.010850694444444444,28.99305555555556,0)" xlink:href="#aJ"/><use transform="matrix(0.010850694444444444,0,0,0.010850694444444444,41.94878472222222,0)" xlink:href="#az"/><use transform="matrix(0.010850694444444444,0,0,0.010850694444444444,49.94574652777778,0)" xlink:href="#aJ"/><use transform="matrix(0.010850694444444444,0,0,0.010850694444444444,62.901475694444436,0)" xlink:href="#aH"/><use transform="matrix(0.010850694444444444,0,0,0.010850694444444444,76.03081597222221,0)" xlink:href="#bh"/><use transform="matrix(0.010850694444444444,0,0,0.010850694444444444,83.0837673611111,0)" xlink:href="#aJ"/><use transform="matrix(0.010850694444444444,0,0,0.010850694444444444,96.03949652777777,0)" xlink:href="#bj"/></g><g id="B"><use transform="matrix(0.010850694444444444,0,0,0.010850694444444444,0,0)" xlink:href="#bc"/><use transform="matrix(0.010850694444444444,0,0,0.010850694444444444,13.823784722222221,0)" xlink:href="#aL"/><use transform="matrix(0.010850694444444444,0,0,0.010850694444444444,26.302083333333332,0)" xlink:href="#bj"/><use transform="matrix(0.010850694444444444,0,0,0.010850694444444444,38.03168402777778,0)" xlink:href="#aJ"/></g><g id="C"><use transform="matrix(0.010850694444444444,0,0,0.010850694444444444,0,0)" xlink:href="#aB"/><use transform="matrix(0.010850694444444444,0,0,0.010850694444444444,13.606770833333332,0)" xlink:href="#aJ"/></g><g id="D"><use transform="matrix(0.010850694444444444,0,0,0.010850694444444444,0,0)" xlink:href="#aB"/><use transform="matrix(0.010850694444444444,0,0,0.010850694444444444,13.606770833333332,0)" xlink:href="#aL"/><use transform="matrix(0.010850694444444444,0,0,0.010850694444444444,26.085069444444443,0)" xlink:href="#aB"/><use transform="matrix(0.010850694444444444,0,0,0.010850694444444444,39.69184027777777,0)" xlink:href="#aA"/><use transform="matrix(0.010850694444444444,0,0,0.010850694444444444,53.01649305555556,0)" xlink:href="#bj"/></g><path d="M789 20c-398 0-667-293-667-764 0-473 273-766 655-766 315 0 558 198 612 487h-196c-61-191-204-311-415-311-262 0-471 207-471 590 0 380 208 588 482 588 249 0 420-165 425-427H828v-166h572v163c0 370-256 606-611 606" id="bu"/><g id="E"><use transform="matrix(0.010850694444444444,0,0,0.010850694444444444,0,0)" xlink:href="#bl"/><use transform="matrix(0.010850694444444444,0,0,0.010850694444444444,8.10546875,0)" xlink:href="#bu"/><use transform="matrix(0.010850694444444444,0,0,0.010850694444444444,24.68532986111111,0)" xlink:href="#aA"/><use transform="matrix(0.010850694444444444,0,0,0.010850694444444444,38.009982638888886,0)" xlink:href="#bp"/><use transform="matrix(0.010850694444444444,0,0,0.010850694444444444,43.39192708333333,0)" xlink:href="#aB"/><use transform="matrix(0.010850694444444444,0,0,0.010850694444444444,56.99869791666666,0)" xlink:href="#aJ"/><use transform="matrix(0.010850694444444444,0,0,0.010850694444444444,69.95442708333333,0)" xlink:href="#aH"/><use transform="matrix(0.010850694444444444,0,0,0.010850694444444444,83.0837673611111,0)" xlink:href="#bn"/></g><path d="M180 0v-1490h908v168H370v486h669v168H370v500h727V0H180" id="bv"/><path d="M338-670V0H158v-1490h180v566c73-149 190-208 336-208 226 0 379 139 379 422V0H872v-695c0-172-96-275-252-275-161 0-282 109-282 300" id="bw"/><g id="F"><use transform="matrix(0.010850694444444444,0,0,0.010850694444444444,0,0)" xlink:href="#bv"/><use transform="matrix(0.010850694444444444,0,0,0.010850694444444444,13.35720486111111,0)" xlink:href="#bj"/><use transform="matrix(0.010850694444444444,0,0,0.010850694444444444,25.08680555555556,0)" xlink:href="#aK"/><use transform="matrix(0.010850694444444444,0,0,0.010850694444444444,37.78211805555556,0)" xlink:href="#aA"/><use transform="matrix(0.010850694444444444,0,0,0.010850694444444444,51.10677083333333,0)" xlink:href="#bp"/><use transform="matrix(0.010850694444444444,0,0,0.010850694444444444,56.48871527777778,0)" xlink:href="#bw"/><use transform="matrix(0.010850694444444444,0,0,0.010850694444444444,69.62890625,0)" xlink:href="#aJ"/><use transform="matrix(0.010850694444444444,0,0,0.010850694444444444,82.58463541666667,0)" xlink:href="#az"/></g><g id="G"><use transform="matrix(0.010850694444444444,0,0,0.010850694444444444,0,0)" xlink:href="#bd"/><use transform="matrix(0.010850694444444444,0,0,0.010850694444444444,19.466145833333332,0)" xlink:href="#aJ"/><use transform="matrix(0.010850694444444444,0,0,0.010850694444444444,32.421875,0)" xlink:href="#bp"/><use transform="matrix(0.010850694444444444,0,0,0.010850694444444444,37.80381944444444,0)" xlink:href="#bw"/><use transform="matrix(0.010850694444444444,0,0,0.010850694444444444,50.944010416666664,0)" xlink:href="#aA"/><use transform="matrix(0.010850694444444444,0,0,0.010850694444444444,64.26866319444444,0)" xlink:href="#az"/></g><g id="H"><use transform="matrix(0.010850694444444444,0,0,0.010850694444444444,0,0)" xlink:href="#bo"/><use transform="matrix(0.010850694444444444,0,0,0.010850694444444444,13.606770833333332,0)" xlink:href="#aJ"/><use transform="matrix(0.010850694444444444,0,0,0.010850694444444444,26.5625,0)" xlink:href="#az"/><use transform="matrix(0.010850694444444444,0,0,0.010850694444444444,35.275607638888886,0)" xlink:href="#aI"/><use transform="matrix(0.010850694444444444,0,0,0.010850694444444444,42.849392361111114,0)" xlink:href="#aA"/><use transform="matrix(0.010850694444444444,0,0,0.010850694444444444,56.1740451388889,0)" xlink:href="#az"/><use transform="matrix(0.010850694444444444,0,0,0.010850694444444444,64.88715277777779,0)" xlink:href="#bd"/><use transform="matrix(0.010850694444444444,0,0,0.010850694444444444,84.35329861111111,0)" xlink:href="#aL"/><use transform="matrix(0.010850694444444444,0,0,0.010850694444444444,96.83159722222221,0)" xlink:href="#aH"/><use transform="matrix(0.010850694444444444,0,0,0.010850694444444444,109.9609375,0)" xlink:href="#bj"/><use transform="matrix(0.010850694444444444,0,0,0.010850694444444444,121.69053819444444,0)" xlink:href="#aJ"/></g><g id="I"><use transform="matrix(0.010850694444444444,0,0,0.010850694444444444,0,0)" xlink:href="#bl"/><use transform="matrix(0.010850694444444444,0,0,0.010850694444444444,8.10546875,0)" xlink:href="#bt"/><use transform="matrix(0.010850694444444444,0,0,0.010850694444444444,23.4375,0)" xlink:href="#aH"/><use transform="matrix(0.010850694444444444,0,0,0.010850694444444444,36.56684027777778,0)" xlink:href="#aL"/><use transform="matrix(0.010850694444444444,0,0,0.010850694444444444,49.045138888888886,0)" xlink:href="#bp"/><use transform="matrix(0.010850694444444444,0,0,0.010850694444444444,54.42708333333333,0)" xlink:href="#aG"/><use transform="matrix(0.010850694444444444,0,0,0.010850694444444444,59.80902777777778,0)" xlink:href="#bj"/><use transform="matrix(0.010850694444444444,0,0,0.010850694444444444,71.53862847222221,0)" xlink:href="#aJ"/></g><g id="J"><use transform="matrix(0.010850694444444444,0,0,0.010850694444444444,0,0)" xlink:href="#aJ"/><use transform="matrix(0.010850694444444444,0,0,0.010850694444444444,12.955729166666666,0)" xlink:href="#bj"/><use transform="matrix(0.010850694444444444,0,0,0.010850694444444444,24.68532986111111,0)" xlink:href="#bh"/><use transform="matrix(0.010850694444444444,0,0,0.010850694444444444,32.06380208333333,0)" xlink:href="#aL"/><use transform="matrix(0.010850694444444444,0,0,0.010850694444444444,44.54210069444444,0)" xlink:href="#bh"/><use transform="matrix(0.010850694444444444,0,0,0.010850694444444444,51.81206597222222,0)" xlink:href="#aG"/><use transform="matrix(0.010850694444444444,0,0,0.010850694444444444,57.194010416666664,0)" xlink:href="#bj"/><use transform="matrix(0.010850694444444444,0,0,0.010850694444444444,68.92361111111111,0)" xlink:href="#bh"/><use transform="matrix(0.010850694444444444,0,0,0.010850694444444444,76.19357638888889,0)" xlink:href="#aG"/><use transform="matrix(0.010850694444444444,0,0,0.010850694444444444,81.57552083333333,0)" xlink:href="#aK"/><use transform="matrix(0.010850694444444444,0,0,0.010850694444444444,94.48784722222221,0)" xlink:href="#aL"/><use transform="matrix(0.010850694444444444,0,0,0.010850694444444444,106.96614583333333,0)" xlink:href="#bn"/></g><path d="M98-1322v-168h1126v168H757V0H567v-1322H98" id="bx"/><path d="M1096 418H916v-591h-14C865-111 790 24 577 24c-279 0-473-224-473-580 0-354 195-576 474-576 218 0 287 134 324 193h20v-179h174V418zM604-137c203 0 314-172 314-421 0-247-108-413-314-413-212 0-317 181-317 413 0 235 108 421 317 421" id="by"/><g id="K"><use transform="matrix(0.010850694444444444,0,0,0.010850694444444444,0,0)" xlink:href="#bx"/><use transform="matrix(0.010850694444444444,0,0,0.010850694444444444,13.0859375,0)" xlink:href="#az"/><use transform="matrix(0.010850694444444444,0,0,0.010850694444444444,21.082899305555557,0)" xlink:href="#aJ"/><use transform="matrix(0.010850694444444444,0,0,0.010850694444444444,34.03862847222222,0)" xlink:href="#aG"/><use transform="matrix(0.010850694444444444,0,0,0.010850694444444444,39.420572916666664,0)" xlink:href="#aH"/><use transform="matrix(0.010850694444444444,0,0,0.010850694444444444,52.54991319444444,0)" xlink:href="#aL"/><use transform="matrix(0.010850694444444444,0,0,0.010850694444444444,65.02821180555556,0)" xlink:href="#aB"/><use transform="matrix(0.010850694444444444,0,0,0.010850694444444444,78.63498263888889,0)" xlink:href="#aA"/><use transform="matrix(0.010850694444444444,0,0,0.010850694444444444,91.95963541666666,0)" xlink:href="#aF"/><use transform="matrix(0.010850694444444444,0,0,0.010850694444444444,99.42491319444441,0)" xlink:href="#bt"/><use transform="matrix(0.010850694444444444,0,0,0.010850694444444444,114.75694444444441,0)" xlink:href="#az"/><use transform="matrix(0.010850694444444444,0,0,0.010850694444444444,122.75390625,0)" xlink:href="#by"/><use transform="matrix(0.010850694444444444,0,0,0.010850694444444444,136.36067708333331,0)" xlink:href="#aC"/><use transform="matrix(0.010850694444444444,0,0,0.010850694444444444,149.50086805555554,0)" xlink:href="#aG"/><use transform="matrix(0.010850694444444444,0,0,0.010850694444444444,154.8828125,0)" xlink:href="#bh"/><use transform="matrix(0.010850694444444444,0,0,0.010850694444444444,161.93576388888889,0)" xlink:href="#aJ"/><use transform="matrix(0.010850694444444444,0,0,0.010850694444444444,174.89149305555554,0)" xlink:href="#bh"/><use transform="matrix(0.010850694444444444,0,0,0.010850694444444444,182.16145833333331,0)" xlink:href="#aC"/><use transform="matrix(0.010850694444444444,0,0,0.010850694444444444,195.30164930555554,0)" xlink:href="#az"/><use transform="matrix(0.010850694444444444,0,0,0.010850694444444444,203.66753472222223,0)" xlink:href="#aL"/></g><g id="L"><use transform="matrix(0.010850694444444444,0,0,0.010850694444444444,0,0)" xlink:href="#aB"/><use transform="matrix(0.010850694444444444,0,0,0.010850694444444444,13.606770833333332,0)" xlink:href="#aA"/></g><g id="M"><use transform="matrix(0.010850694444444444,0,0,0.010850694444444444,0,0)" xlink:href="#aB"/><use transform="matrix(0.010850694444444444,0,0,0.010850694444444444,13.606770833333332,0)" xlink:href="#aL"/><use transform="matrix(0.010850694444444444,0,0,0.010850694444444444,26.085069444444443,0)" xlink:href="#bh"/><use transform="matrix(0.010850694444444444,0,0,0.010850694444444444,33.13802083333333,0)" xlink:href="#aJ"/><use transform="matrix(0.010850694444444444,0,0,0.010850694444444444,46.093749999999986,0)" xlink:href="#bj"/><use transform="matrix(0.010850694444444444,0,0,0.010850694444444444,57.823350694444436,0)" xlink:href="#aJ"/><use transform="matrix(0.010850694444444444,0,0,0.010850694444444444,70.7790798611111,0)" xlink:href="#bh"/></g><g id="N"><use transform="matrix(0.010850694444444444,0,0,0.010850694444444444,0,0)" xlink:href="#aL"/><use transform="matrix(0.010850694444444444,0,0,0.010850694444444444,12.47829861111111,0)" xlink:href="#aH"/><use transform="matrix(0.010850694444444444,0,0,0.010850694444444444,25.60763888888889,0)" xlink:href="#bh"/><use transform="matrix(0.010850694444444444,0,0,0.010850694444444444,32.66059027777777,0)" xlink:href="#aJ"/><use transform="matrix(0.010850694444444444,0,0,0.010850694444444444,45.616319444444436,0)" xlink:href="#az"/><use transform="matrix(0.010850694444444444,0,0,0.010850694444444444,54.32942708333332,0)" xlink:href="#aG"/><use transform="matrix(0.010850694444444444,0,0,0.010850694444444444,59.711371527777764,0)" xlink:href="#aA"/><use transform="matrix(0.010850694444444444,0,0,0.010850694444444444,73.03602430555554,0)" xlink:href="#az"/></g><g id="O"><use transform="matrix(0.010850694444444444,0,0,0.010850694444444444,0,0)" xlink:href="#bl"/><use transform="matrix(0.010850694444444444,0,0,0.010850694444444444,8.10546875,0)" xlink:href="#aZ"/><use transform="matrix(0.010850694444444444,0,0,0.010850694444444444,28.80859375,0)" xlink:href="#ba"/><use transform="matrix(0.010850694444444444,0,0,0.010850694444444444,41.373697916666664,0)" xlink:href="#aM"/><use transform="matrix(0.010850694444444444,0,0,0.010850694444444444,55.77256944444444,0)" xlink:href="#bn"/></g><g id="P"><use transform="matrix(0.010850694444444444,0,0,0.010850694444444444,0,0)" xlink:href="#bf"/><use transform="matrix(0.010850694444444444,0,0,0.010850694444444444,16.23263888888889,0)" xlink:href="#bi"/><use transform="matrix(0.010850694444444444,0,0,0.010850694444444444,32.97526041666667,0)" xlink:href="#bi"/><use transform="matrix(0.010850694444444444,0,0,0.010850694444444444,49.71788194444445,0)" xlink:href="#bj"/></g><g id="Q"><use transform="matrix(0.010850694444444444,0,0,0.010850694444444444,0,0)" xlink:href="#bh"/><use transform="matrix(0.010850694444444444,0,0,0.010850694444444444,7.269965277777778,0)" xlink:href="#az"/><use transform="matrix(0.010850694444444444,0,0,0.010850694444444444,15.266927083333332,0)" xlink:href="#aJ"/><use transform="matrix(0.010850694444444444,0,0,0.010850694444444444,28.22265625,0)" xlink:href="#aG"/><use transform="matrix(0.010850694444444444,0,0,0.010850694444444444,33.60460069444444,0)" xlink:href="#aH"/><use transform="matrix(0.010850694444444444,0,0,0.010850694444444444,46.73394097222222,0)" xlink:href="#aL"/><use transform="matrix(0.010850694444444444,0,0,0.010850694444444444,59.21223958333333,0)" xlink:href="#aB"/><use transform="matrix(0.010850694444444444,0,0,0.010850694444444444,72.81901041666666,0)" xlink:href="#aA"/><use transform="matrix(0.010850694444444444,0,0,0.010850694444444444,86.14366319444443,0)" xlink:href="#bj"/></g><path d="M180 0v-1490h528c311 0 458 177 458 395 0 191-114 278-244 313v14c139 9 302 137 302 371 0 225-148 397-499 397H180zm190-168h350c232 0 321-102 321-231 0-149-120-277-311-277H370v508zm0-668h328c160 0 286-101 286-255 0-129-87-231-280-231H370v486" id="bz"/><g id="R"><use transform="matrix(0.010850694444444444,0,0,0.010850694444444444,0,0)" xlink:href="#bz"/><use transform="matrix(0.010850694444444444,0,0,0.010850694444444444,14.539930555555555,0)" xlink:href="#aL"/><use transform="matrix(0.010850694444444444,0,0,0.010850694444444444,27.018229166666664,0)" xlink:href="#bj"/><use transform="matrix(0.010850694444444444,0,0,0.010850694444444444,38.74782986111111,0)" xlink:href="#aJ"/></g><g id="S"><use transform="matrix(0.010850694444444444,0,0,0.010850694444444444,0,0)" xlink:href="#aB"/><use transform="matrix(0.010850694444444444,0,0,0.010850694444444444,13.606770833333332,0)" xlink:href="#aL"/><use transform="matrix(0.010850694444444444,0,0,0.010850694444444444,26.085069444444443,0)" xlink:href="#aB"/><use transform="matrix(0.010850694444444444,0,0,0.010850694444444444,39.69184027777777,0)" xlink:href="#aA"/><use transform="matrix(0.010850694444444444,0,0,0.010850694444444444,53.01649305555556,0)" xlink:href="#bj"/></g><g id="T"><use transform="matrix(0.010850694444444444,0,0,0.010850694444444444,0,0)" xlink:href="#bl"/><use transform="matrix(0.010850694444444444,0,0,0.010850694444444444,8.10546875,0)" xlink:href="#aG"/><use transform="matrix(0.010850694444444444,0,0,0.010850694444444444,13.487413194444445,0)" xlink:href="#bd"/><use transform="matrix(0.010850694444444444,0,0,0.010850694444444444,32.95355902777778,0)" xlink:href="#aL"/><use transform="matrix(0.010850694444444444,0,0,0.010850694444444444,45.431857638888886,0)" xlink:href="#be"/><use transform="matrix(0.010850694444444444,0,0,0.010850694444444444,59.06032986111111,0)" xlink:href="#aJ"/><use transform="matrix(0.010850694444444444,0,0,0.010850694444444444,72.01605902777777,0)" xlink:href="#aH"/><use transform="matrix(0.010850694444444444,0,0,0.010850694444444444,85.14539930555554,0)" xlink:href="#bj"/><use transform="matrix(0.010850694444444444,0,0,0.010850694444444444,96.87499999999997,0)" xlink:href="#bn"/></g><g id="U"><use transform="matrix(0.010850694444444444,0,0,0.010850694444444444,0,0)" xlink:href="#br"/><use transform="matrix(0.010850694444444444,0,0,0.010850694444444444,16.03732638888889,0)" xlink:href="#aG"/><use transform="matrix(0.010850694444444444,0,0,0.010850694444444444,21.419270833333336,0)" xlink:href="#aI"/><use transform="matrix(0.010850694444444444,0,0,0.010850694444444444,28.99305555555556,0)" xlink:href="#aJ"/><use transform="matrix(0.010850694444444444,0,0,0.010850694444444444,41.94878472222222,0)" xlink:href="#az"/><use transform="matrix(0.010850694444444444,0,0,0.010850694444444444,49.94574652777778,0)" xlink:href="#aJ"/><use transform="matrix(0.010850694444444444,0,0,0.010850694444444444,62.901475694444436,0)" xlink:href="#aH"/><use transform="matrix(0.010850694444444444,0,0,0.010850694444444444,76.03081597222221,0)" xlink:href="#bh"/><use transform="matrix(0.010850694444444444,0,0,0.010850694444444444,83.0837673611111,0)" xlink:href="#aJ"/><use transform="matrix(0.010850694444444444,0,0,0.010850694444444444,96.03949652777777,0)" xlink:href="#bj"/></g><path d="M613 24c-304 0-509-231-509-576 0-350 205-580 509-580 305 0 511 230 511 580 0 345-206 576-511 576zm0-161c226 0 329-195 329-415 0-222-103-419-329-419-223 0-326 196-326 419 0 220 103 415 326 415zm131-1176c-99 0-192-83-243-83-35 0-51 40-53 79H322c4-120 55-208 162-208 104 0 174 85 241 85 33 0 49-23 56-81h123c-4 126-62 208-160 208" id="bA"/><g id="V"><use transform="matrix(0.010850694444444444,0,0,0.010850694444444444,0,0)" xlink:href="#aK"/><use transform="matrix(0.010850694444444444,0,0,0.010850694444444444,12.6953125,0)" xlink:href="#aA"/><use transform="matrix(0.010850694444444444,0,0,0.010850694444444444,26.01996527777778,0)" xlink:href="#bd"/><use transform="matrix(0.010850694444444444,0,0,0.010850694444444444,45.48611111111111,0)" xlink:href="#bo"/><use transform="matrix(0.010850694444444444,0,0,0.010850694444444444,59.09288194444444,0)" xlink:href="#aA"/><use transform="matrix(0.010850694444444444,0,0,0.010850694444444444,72.41753472222221,0)" xlink:href="#bj"/><use transform="matrix(0.010850694444444444,0,0,0.010850694444444444,84.14713541666666,0)" xlink:href="#aG"/><use transform="matrix(0.010850694444444444,0,0,0.010850694444444444,89.52907986111111,0)" xlink:href="#aD"/><use transform="matrix(0.010850694444444444,0,0,0.010850694444444444,102.22439236111111,0)" xlink:href="#bA"/><use transform="matrix(0.010850694444444444,0,0,0.010850694444444444,115.54904513888887,0)" xlink:href="#aJ"/><use transform="matrix(0.010850694444444444,0,0,0.010850694444444444,128.50477430555554,0)" xlink:href="#bj"/></g><g id="W"><use transform="matrix(0.010850694444444444,0,0,0.010850694444444444,0,0)" xlink:href="#aB"/><use transform="matrix(0.010850694444444444,0,0,0.010850694444444444,13.606770833333332,0)" xlink:href="#aL"/><use transform="matrix(0.010850694444444444,0,0,0.010850694444444444,26.085069444444443,0)" xlink:href="#bh"/><use transform="matrix(0.010850694444444444,0,0,0.010850694444444444,33.463541666666664,0)" xlink:href="#aL"/><use transform="matrix(0.010850694444444444,0,0,0.010850694444444444,45.94184027777778,0)" xlink:href="#bj"/><use transform="matrix(0.010850694444444444,0,0,0.010850694444444444,57.67144097222221,0)" xlink:href="#aJ"/><use transform="matrix(0.010850694444444444,0,0,0.010850694444444444,70.62717013888889,0)" xlink:href="#bh"/></g><g id="X"><use transform="matrix(0.010850694444444444,0,0,0.010850694444444444,0,0)" xlink:href="#aL"/><use transform="matrix(0.010850694444444444,0,0,0.010850694444444444,12.47829861111111,0)" xlink:href="#az"/><use transform="matrix(0.010850694444444444,0,0,0.010850694444444444,20.475260416666664,0)" xlink:href="#by"/><use transform="matrix(0.010850694444444444,0,0,0.010850694444444444,34.08203125,0)" xlink:href="#aC"/><use transform="matrix(0.010850694444444444,0,0,0.010850694444444444,47.22222222222222,0)" xlink:href="#aG"/><use transform="matrix(0.010850694444444444,0,0,0.010850694444444444,52.604166666666664,0)" xlink:href="#bh"/><use transform="matrix(0.010850694444444444,0,0,0.010850694444444444,59.65711805555555,0)" xlink:href="#aJ"/><use transform="matrix(0.010850694444444444,0,0,0.010850694444444444,72.61284722222223,0)" xlink:href="#bh"/><use transform="matrix(0.010850694444444444,0,0,0.010850694444444444,79.8828125,0)" xlink:href="#aC"/><use transform="matrix(0.010850694444444444,0,0,0.010850694444444444,93.02300347222221,0)" xlink:href="#az"/><use transform="matrix(0.010850694444444444,0,0,0.010850694444444444,101.3888888888889,0)" xlink:href="#aL"/><use transform="matrix(0.010850694444444444,0,0,0.010850694444444444,113.86718750000001,0)" xlink:href="#bj"/></g><g id="Y"><use transform="matrix(0.010850694444444444,0,0,0.010850694444444444,0,0)" xlink:href="#bk"/><use transform="matrix(0.010850694444444444,0,0,0.010850694444444444,12.565104166666666,0)" xlink:href="#aA"/><use transform="matrix(0.010850694444444444,0,0,0.010850694444444444,25.889756944444443,0)" xlink:href="#be"/><use transform="matrix(0.010850694444444444,0,0,0.010850694444444444,39.518229166666664,0)" xlink:href="#be"/><use transform="matrix(0.010850694444444444,0,0,0.010850694444444444,53.146701388888886,0)" xlink:href="#aL"/><use transform="matrix(0.010850694444444444,0,0,0.010850694444444444,65.625,0)" xlink:href="#az"/></g><g id="Z"><use transform="matrix(0.010850694444444444,0,0,0.010850694444444444,0,0)" xlink:href="#bh"/><use transform="matrix(0.010850694444444444,0,0,0.010850694444444444,7.052951388888888,0)" xlink:href="#aA"/><use transform="matrix(0.010850694444444444,0,0,0.010850694444444444,20.377604166666664,0)" xlink:href="#aB"/><use transform="matrix(0.010850694444444444,0,0,0.010850694444444444,33.984375,0)" xlink:href="#aA"/><use transform="matrix(0.010850694444444444,0,0,0.010850694444444444,47.30902777777778,0)" xlink:href="#bj"/></g><g id="aa"><use transform="matrix(0.010850694444444444,0,0,0.010850694444444444,0,0)" xlink:href="#aA"/><use transform="matrix(0.010850694444444444,0,0,0.010850694444444444,13.324652777777777,0)" xlink:href="#bj"/></g><g id="ab"><use transform="matrix(0.010850694444444444,0,0,0.010850694444444444,0,0)" xlink:href="#bd"/><use transform="matrix(0.010850694444444444,0,0,0.010850694444444444,19.466145833333332,0)" xlink:href="#aJ"/><use transform="matrix(0.010850694444444444,0,0,0.010850694444444444,32.421875,0)" xlink:href="#bp"/><use transform="matrix(0.010850694444444444,0,0,0.010850694444444444,37.80381944444444,0)" xlink:href="#bw"/><use transform="matrix(0.010850694444444444,0,0,0.010850694444444444,50.944010416666664,0)" xlink:href="#aA"/><use transform="matrix(0.010850694444444444,0,0,0.010850694444444444,64.26866319444444,0)" xlink:href="#az"/><use transform="matrix(0.010850694444444444,0,0,0.010850694444444444,72.265625,0)" xlink:href="#aJ"/><use transform="matrix(0.010850694444444444,0,0,0.010850694444444444,85.22135416666667,0)" xlink:href="#bj"/></g><g id="ac"><use transform="matrix(0.010850694444444444,0,0,0.010850694444444444,0,0)" xlink:href="#bd"/><use transform="matrix(0.010850694444444444,0,0,0.010850694444444444,19.466145833333332,0)" xlink:href="#aA"/><use transform="matrix(0.010850694444444444,0,0,0.010850694444444444,32.79079861111111,0)" xlink:href="#aB"/><use transform="matrix(0.010850694444444444,0,0,0.010850694444444444,46.39756944444444,0)" xlink:href="#aJ"/><use transform="matrix(0.010850694444444444,0,0,0.010850694444444444,59.35329861111111,0)" xlink:href="#bp"/><use transform="matrix(0.010850694444444444,0,0,0.010850694444444444,64.73524305555556,0)" xlink:href="#aA"/><use transform="matrix(0.010850694444444444,0,0,0.010850694444444444,78.05989583333333,0)" xlink:href="#bj"/></g><g id="ad"><use transform="matrix(0.010850694444444444,0,0,0.010850694444444444,0,0)" xlink:href="#aK"/><use transform="matrix(0.010850694444444444,0,0,0.010850694444444444,12.91232638888889,0)" xlink:href="#aL"/><use transform="matrix(0.010850694444444444,0,0,0.010850694444444444,25.390625,0)" xlink:href="#aB"/><use transform="matrix(0.010850694444444444,0,0,0.010850694444444444,38.99739583333333,0)" xlink:href="#aL"/></g><g id="ae"><use transform="matrix(0.010850694444444444,0,0,0.010850694444444444,0,0)" xlink:href="#aL"/><use transform="matrix(0.010850694444444444,0,0,0.010850694444444444,12.47829861111111,0)" xlink:href="#az"/><use transform="matrix(0.010850694444444444,0,0,0.010850694444444444,20.475260416666664,0)" xlink:href="#by"/><use transform="matrix(0.010850694444444444,0,0,0.010850694444444444,34.08203125,0)" xlink:href="#aC"/><use transform="matrix(0.010850694444444444,0,0,0.010850694444444444,47.22222222222222,0)" xlink:href="#aG"/><use transform="matrix(0.010850694444444444,0,0,0.010850694444444444,52.604166666666664,0)" xlink:href="#bh"/><use transform="matrix(0.010850694444444444,0,0,0.010850694444444444,59.65711805555555,0)" xlink:href="#aJ"/><use transform="matrix(0.010850694444444444,0,0,0.010850694444444444,72.61284722222223,0)" xlink:href="#bh"/><use transform="matrix(0.010850694444444444,0,0,0.010850694444444444,79.8828125,0)" xlink:href="#aC"/><use transform="matrix(0.010850694444444444,0,0,0.010850694444444444,93.02300347222221,0)" xlink:href="#az"/><use transform="matrix(0.010850694444444444,0,0,0.010850694444444444,101.3888888888889,0)" xlink:href="#aL"/></g><g id="af"><use transform="matrix(0.010850694444444444,0,0,0.010850694444444444,0,0)" xlink:href="#br"/><use transform="matrix(0.010850694444444444,0,0,0.010850694444444444,16.03732638888889,0)" xlink:href="#aL"/><use transform="matrix(0.010850694444444444,0,0,0.010850694444444444,28.515625,0)" xlink:href="#bh"/><use transform="matrix(0.010850694444444444,0,0,0.010850694444444444,35.89409722222222,0)" xlink:href="#aL"/><use transform="matrix(0.010850694444444444,0,0,0.010850694444444444,48.37239583333333,0)" xlink:href="#bj"/><use transform="matrix(0.010850694444444444,0,0,0.010850694444444444,60.10199652777778,0)" xlink:href="#aJ"/><use transform="matrix(0.010850694444444444,0,0,0.010850694444444444,73.05772569444444,0)" xlink:href="#bh"/></g><g id="ag"><use transform="matrix(0.010850694444444444,0,0,0.010850694444444444,0,0)" xlink:href="#az"/><use transform="matrix(0.010850694444444444,0,0,0.010850694444444444,7.996961805555555,0)" xlink:href="#aJ"/><use transform="matrix(0.010850694444444444,0,0,0.010850694444444444,20.95269097222222,0)" xlink:href="#bj"/><use transform="matrix(0.010850694444444444,0,0,0.010850694444444444,32.682291666666664,0)" xlink:href="#aC"/><use transform="matrix(0.010850694444444444,0,0,0.010850694444444444,45.822482638888886,0)" xlink:href="#bp"/><use transform="matrix(0.010850694444444444,0,0,0.010850694444444444,51.529947916666664,0)" xlink:href="#bh"/><use transform="matrix(0.010850694444444444,0,0,0.010850694444444444,58.908420138888886,0)" xlink:href="#aL"/><use transform="matrix(0.010850694444444444,0,0,0.010850694444444444,71.38671875,0)" xlink:href="#aB"/><use transform="matrix(0.010850694444444444,0,0,0.010850694444444444,84.99348958333333,0)" xlink:href="#aA"/><use transform="matrix(0.010850694444444444,0,0,0.010850694444444444,98.31814236111111,0)" xlink:href="#bj"/></g><g id="ah"><use transform="matrix(0.010850694444444444,0,0,0.010850694444444444,0,0)" xlink:href="#az"/><use transform="matrix(0.010850694444444444,0,0,0.010850694444444444,7.996961805555555,0)" xlink:href="#aA"/><use transform="matrix(0.010850694444444444,0,0,0.010850694444444444,21.321614583333332,0)" xlink:href="#bh"/><use transform="matrix(0.010850694444444444,0,0,0.010850694444444444,28.59157986111111,0)" xlink:href="#aC"/><use transform="matrix(0.010850694444444444,0,0,0.010850694444444444,41.73177083333333,0)" xlink:href="#bp"/><use transform="matrix(0.010850694444444444,0,0,0.010850694444444444,47.11371527777778,0)" xlink:href="#aL"/><use transform="matrix(0.010850694444444444,0,0,0.010850694444444444,59.592013888888886,0)" xlink:href="#aB"/><use transform="matrix(0.010850694444444444,0,0,0.010850694444444444,73.19878472222221,0)" xlink:href="#aA"/><use transform="matrix(0.010850694444444444,0,0,0.010850694444444444,86.52343749999999,0)" xlink:href="#bj"/></g><g id="ai"><use transform="matrix(0.010850694444444444,0,0,0.010850694444444444,0,0)" xlink:href="#az"/><use transform="matrix(0.010850694444444444,0,0,0.010850694444444444,7.996961805555555,0)" xlink:href="#aA"/><use transform="matrix(0.010850694444444444,0,0,0.010850694444444444,21.321614583333332,0)" xlink:href="#bh"/><use transform="matrix(0.010850694444444444,0,0,0.010850694444444444,28.59157986111111,0)" xlink:href="#aC"/><use transform="matrix(0.010850694444444444,0,0,0.010850694444444444,41.73177083333333,0)" xlink:href="#bp"/><use transform="matrix(0.010850694444444444,0,0,0.010850694444444444,47.11371527777778,0)" xlink:href="#aL"/><use transform="matrix(0.010850694444444444,0,0,0.010850694444444444,59.592013888888886,0)" xlink:href="#aB"/><use transform="matrix(0.010850694444444444,0,0,0.010850694444444444,73.19878472222221,0)" xlink:href="#aL"/></g><g id="aj"><use transform="matrix(0.010850694444444444,0,0,0.010850694444444444,0,0)" xlink:href="#ay"/><use transform="matrix(0.010850694444444444,0,0,0.010850694444444444,14.192708333333332,0)" xlink:href="#aL"/><use transform="matrix(0.010850694444444444,0,0,0.010850694444444444,26.671006944444443,0)" xlink:href="#bj"/><use transform="matrix(0.010850694444444444,0,0,0.010850694444444444,38.400607638888886,0)" xlink:href="#bj"/><use transform="matrix(0.010850694444444444,0,0,0.010850694444444444,50.13020833333333,0)" xlink:href="#aL"/><use transform="matrix(0.010850694444444444,0,0,0.010850694444444444,62.60850694444444,0)" xlink:href="#az"/></g><g id="ak"><use transform="matrix(0.010850694444444444,0,0,0.010850694444444444,0,0)" xlink:href="#bo"/><use transform="matrix(0.010850694444444444,0,0,0.010850694444444444,13.606770833333332,0)" xlink:href="#aJ"/><use transform="matrix(0.010850694444444444,0,0,0.010850694444444444,26.5625,0)" xlink:href="#bp"/><use transform="matrix(0.010850694444444444,0,0,0.010850694444444444,31.944444444444443,0)" xlink:href="#aA"/><use transform="matrix(0.010850694444444444,0,0,0.010850694444444444,45.26909722222222,0)" xlink:href="#bj"/></g><g id="al"><use transform="matrix(0.010850694444444444,0,0,0.010850694444444444,0,0)" xlink:href="#bd"/><use transform="matrix(0.010850694444444444,0,0,0.010850694444444444,19.466145833333332,0)" xlink:href="#aA"/><use transform="matrix(0.010850694444444444,0,0,0.010850694444444444,32.79079861111111,0)" xlink:href="#aB"/><use transform="matrix(0.010850694444444444,0,0,0.010850694444444444,46.39756944444444,0)" xlink:href="#aJ"/><use transform="matrix(0.010850694444444444,0,0,0.010850694444444444,59.35329861111111,0)" xlink:href="#bp"/><use transform="matrix(0.010850694444444444,0,0,0.010850694444444444,64.73524305555556,0)" xlink:href="#aA"/><use transform="matrix(0.010850694444444444,0,0,0.010850694444444444,78.05989583333333,0)" xlink:href="#bj"/></g><g id="am"><use transform="matrix(0.010850694444444444,0,0,0.010850694444444444,0,0)" xlink:href="#bf"/><use transform="matrix(0.010850694444444444,0,0,0.010850694444444444,16.23263888888889,0)" xlink:href="#bi"/><use transform="matrix(0.010850694444444444,0,0,0.010850694444444444,32.97526041666667,0)" xlink:href="#bi"/></g><g id="an"><use transform="matrix(0.010850694444444444,0,0,0.010850694444444444,0,0)" xlink:href="#bq"/><use transform="matrix(0.010850694444444444,0,0,0.010850694444444444,20.07378472222222,0)" xlink:href="#aA"/><use transform="matrix(0.010850694444444444,0,0,0.010850694444444444,33.3984375,0)" xlink:href="#aH"/><use transform="matrix(0.010850694444444444,0,0,0.010850694444444444,46.52777777777778,0)" xlink:href="#bh"/><use transform="matrix(0.010850694444444444,0,0,0.010850694444444444,53.90625,0)" xlink:href="#aL"/><use transform="matrix(0.010850694444444444,0,0,0.010850694444444444,66.38454861111111,0)" xlink:href="#az"/></g><g id="ao"><use transform="matrix(0.010850694444444444,0,0,0.010850694444444444,0,0)" xlink:href="#aK"/><use transform="matrix(0.010850694444444444,0,0,0.010850694444444444,12.6953125,0)" xlink:href="#aA"/><use transform="matrix(0.010850694444444444,0,0,0.010850694444444444,26.01996527777778,0)" xlink:href="#bd"/></g><path d="M481 0L54-1118h197c107 314 236 620 325 951 87-331 217-637 324-951h197L670 0H481" id="bB"/><g id="ap"><use transform="matrix(0.010850694444444444,0,0,0.010850694444444444,0,0)" xlink:href="#bB"/><use transform="matrix(0.010850694444444444,0,0,0.010850694444444444,12.055121527777777,0)" xlink:href="#aJ"/><use transform="matrix(0.010850694444444444,0,0,0.010850694444444444,25.010850694444443,0)" xlink:href="#bh"/><use transform="matrix(0.010850694444444444,0,0,0.010850694444444444,32.06380208333333,0)" xlink:href="#aA"/><use transform="matrix(0.010850694444444444,0,0,0.010850694444444444,45.38845486111111,0)" xlink:href="#az"/></g><g id="aq"><use transform="matrix(0.010850694444444444,0,0,0.010850694444444444,0,0)" xlink:href="#az"/><use transform="matrix(0.010850694444444444,0,0,0.010850694444444444,7.996961805555555,0)" xlink:href="#aJ"/><use transform="matrix(0.010850694444444444,0,0,0.010850694444444444,20.95269097222222,0)" xlink:href="#bj"/><use transform="matrix(0.010850694444444444,0,0,0.010850694444444444,32.682291666666664,0)" xlink:href="#aC"/><use transform="matrix(0.010850694444444444,0,0,0.010850694444444444,45.822482638888886,0)" xlink:href="#bp"/><use transform="matrix(0.010850694444444444,0,0,0.010850694444444444,51.529947916666664,0)" xlink:href="#bh"/><use transform="matrix(0.010850694444444444,0,0,0.010850694444444444,58.908420138888886,0)" xlink:href="#aL"/><use transform="matrix(0.010850694444444444,0,0,0.010850694444444444,71.38671875,0)" xlink:href="#aB"/><use transform="matrix(0.010850694444444444,0,0,0.010850694444444444,84.99348958333333,0)" xlink:href="#aA"/><use transform="matrix(0.010850694444444444,0,0,0.010850694444444444,98.31814236111111,0)" xlink:href="#bj"/></g><g id="ar"><use transform="matrix(0.010850694444444444,0,0,0.010850694444444444,0,0)" xlink:href="#bm"/><use transform="matrix(0.010850694444444444,0,0,0.010850694444444444,14.2578125,0)" xlink:href="#aJ"/><use transform="matrix(0.010850694444444444,0,0,0.010850694444444444,27.213541666666664,0)" xlink:href="#bp"/><use transform="matrix(0.010850694444444444,0,0,0.010850694444444444,32.59548611111111,0)" xlink:href="#aJ"/><use transform="matrix(0.010850694444444444,0,0,0.010850694444444444,45.55121527777778,0)" xlink:href="#aD"/><use transform="matrix(0.010850694444444444,0,0,0.010850694444444444,58.46354166666666,0)" xlink:href="#aE"/><use transform="matrix(0.010850694444444444,0,0,0.010850694444444444,70.94184027777777,0)" xlink:href="#aA"/></g><g id="as"><use transform="matrix(0.010850694444444444,0,0,0.010850694444444444,0,0)" xlink:href="#bd"/><use transform="matrix(0.010850694444444444,0,0,0.010850694444444444,19.466145833333332,0)" xlink:href="#aJ"/><use transform="matrix(0.010850694444444444,0,0,0.010850694444444444,32.421875,0)" xlink:href="#bp"/><use transform="matrix(0.010850694444444444,0,0,0.010850694444444444,37.80381944444444,0)" xlink:href="#bw"/><use transform="matrix(0.010850694444444444,0,0,0.010850694444444444,50.944010416666664,0)" xlink:href="#aA"/><use transform="matrix(0.010850694444444444,0,0,0.010850694444444444,64.26866319444444,0)" xlink:href="#az"/></g><g id="at"><use transform="matrix(0.010850694444444444,0,0,0.010850694444444444,0,0)" xlink:href="#bd"/><use transform="matrix(0.010850694444444444,0,0,0.010850694444444444,19.466145833333332,0)" xlink:href="#aA"/><use transform="matrix(0.010850694444444444,0,0,0.010850694444444444,32.79079861111111,0)" xlink:href="#aB"/><use transform="matrix(0.010850694444444444,0,0,0.010850694444444444,46.39756944444444,0)" xlink:href="#aJ"/><use transform="matrix(0.010850694444444444,0,0,0.010850694444444444,59.35329861111111,0)" xlink:href="#bp"/><use transform="matrix(0.010850694444444444,0,0,0.010850694444444444,64.73524305555556,0)" xlink:href="#aA"/></g><g id="au"><use transform="matrix(0.010850694444444444,0,0,0.010850694444444444,0,0)" xlink:href="#bl"/><use transform="matrix(0.010850694444444444,0,0,0.010850694444444444,7.855902777777778,0)" xlink:href="#aJ"/><use transform="matrix(0.010850694444444444,0,0,0.010850694444444444,20.811631944444443,0)" xlink:href="#bj"/><use transform="matrix(0.010850694444444444,0,0,0.010850694444444444,32.541232638888886,0)" xlink:href="#bh"/><use transform="matrix(0.010850694444444444,0,0,0.010850694444444444,39.91970486111111,0)" xlink:href="#aL"/><use transform="matrix(0.010850694444444444,0,0,0.010850694444444444,52.39800347222221,0)" xlink:href="#bh"/><use transform="matrix(0.010850694444444444,0,0,0.010850694444444444,59.667968749999986,0)" xlink:href="#aG"/><use transform="matrix(0.010850694444444444,0,0,0.010850694444444444,65.04991319444444,0)" xlink:href="#bj"/><use transform="matrix(0.010850694444444444,0,0,0.010850694444444444,76.77951388888889,0)" xlink:href="#bh"/><use transform="matrix(0.010850694444444444,0,0,0.010850694444444444,84.04947916666666,0)" xlink:href="#aG"/><use transform="matrix(0.010850694444444444,0,0,0.010850694444444444,89.43142361111111,0)" xlink:href="#aK"/><use transform="matrix(0.010850694444444444,0,0,0.010850694444444444,102.34374999999997,0)" xlink:href="#aL"/><use transform="matrix(0.010850694444444444,0,0,0.010850694444444444,114.8220486111111,0)" xlink:href="#bn"/></g><path d="M135 0v-1490h980v253H440v416h609v249H440V0H135" id="bC"/><path d="M428-1490V0H128v-1490h300" id="bD"/><path d="M513 14c-232 0-385-159-385-421v-711h300v659c0 139 76 222 202 222 127 0 217-86 217-234v-647h301V0H864l-4-232C797-74 683 14 513 14" id="bE"/><path d="M42 0l360-574-338-544h324c72 124 151 261 209 394 58-134 140-271 215-394h318L785-570 1146 0H824c-79-136-169-280-234-425C528-278 439-134 360 0H42" id="bF"/><g id="av"><use transform="matrix(0.032552083333333336,0,0,0.032552083333333336,0,0)" xlink:href="#bC"/><use transform="matrix(0.032552083333333336,0,0,0.032552083333333336,39.12760416666667,0)" xlink:href="#bD"/><use transform="matrix(0.032552083333333336,0,0,0.032552083333333336,57.19401041666667,0)" xlink:href="#bE"/><use transform="matrix(0.032552083333333336,0,0,0.032552083333333336,98.69791666666667,0)" xlink:href="#bF"/><use transform="matrix(0.032552083333333336,0,0,0.032552083333333336,136.03515625,0)" xlink:href="#aX"/></g><g id="aw"><use transform="matrix(0.032552083333333336,0,0,0.032552083333333336,0,0)" xlink:href="#aW"/><use transform="matrix(0.032552083333333336,0,0,0.032552083333333336,24.4140625,0)" xlink:href="#aQ"/><use transform="matrix(0.032552083333333336,0,0,0.032552083333333336,49.934895833333336,0)" xlink:href="#aR"/><use transform="matrix(0.032552083333333336,0,0,0.032552083333333336,89.6484375,0)" xlink:href="#aS"/><use transform="matrix(0.032552083333333336,0,0,0.032552083333333336,107.71484374999999,0)" xlink:href="#aT"/><use transform="matrix(0.032552083333333336,0,0,0.032552083333333336,149.21875,0)" xlink:href="#aU"/><use transform="matrix(0.032552083333333336,0,0,0.032552083333333336,187.92317708333334,0)" xlink:href="#aV"/><use transform="matrix(0.032552083333333336,0,0,0.032552083333333336,248.76302083333334,0)" xlink:href="#aR"/><use transform="matrix(0.032552083333333336,0,0,0.032552083333333336,288.4765625,0)" xlink:href="#aT"/><use transform="matrix(0.032552083333333336,0,0,0.032552083333333336,329.98046875,0)" xlink:href="#aW"/><use transform="matrix(0.032552083333333336,0,0,0.032552083333333336,353.7434895833333,0)" xlink:href="#aX"/></g><path d="M628 22C291 22 81-210 81-554c0-346 210-578 547-578 265 0 455 142 497 372l-279 52c-25-116-99-188-215-188-160 0-244 139-244 341 0 200 84 341 244 341 116 0 193-74 217-195l279 51C1085-123 896 22 628 22" id="bG"/><path d="M572 22C302 22 117-98 78-306l279-48c29 105 101 156 224 156 114 0 185-48 185-115 0-118-228-130-337-155-215-49-322-150-322-317 0-215 187-347 470-347 265 0 424 116 466 298l-266 47c-24-76-87-130-196-130-98 0-174 46-174 113 0 56 38 95 144 117l201 40c216 44 320 143 320 302 0 220-207 367-500 367" id="bH"/><g id="ax"><use transform="matrix(0.032552083333333336,0,0,0.032552083333333336,0,0)" xlink:href="#bC"/><use transform="matrix(0.032552083333333336,0,0,0.032552083333333336,37.20703125000001,0)" xlink:href="#aX"/><use transform="matrix(0.032552083333333336,0,0,0.032552083333333336,78.09244791666669,0)" xlink:href="#bG"/><use transform="matrix(0.032552083333333336,0,0,0.032552083333333336,117.31770833333336,0)" xlink:href="#bE"/><use transform="matrix(0.032552083333333336,0,0,0.032552083333333336,158.82161458333337,0)" xlink:href="#bH"/><use transform="matrix(0.032552083333333336,0,0,0.032552083333333336,196.1588541666667,0)" xlink:href="#aY"/><use transform="matrix(0.032552083333333336,0,0,0.032552083333333336,246.97265625000006,0)" xlink:href="#aR"/><use transform="matrix(0.032552083333333336,0,0,0.032552083333333336,286.68619791666674,0)" xlink:href="#aW"/></g></defs></g></svg>